<?xml version="1.0" encoding="UTF-8"?>
<svg xmlns="http://www.w3.org/2000/svg" xmlns:xlink="http://www.w3.org/1999/xlink" width="500pt" height="500pt" viewBox="0 0 500 500" version="1.1">
<g id="surface1013476">
<path style="fill-rule:nonzero;fill:rgb(94.509804%,73.72549%,9.803922%);fill-opacity:1;stroke-width:10;stroke-linecap:butt;stroke-linejoin:round;stroke:rgb(7.45098%,11.764706%,14.509804%);stroke-opacity:1;stroke-miterlimit:10;" d="M 178.540074 31.639337 C 178.540074 32.888912 177.528249 33.900737 176.280516 33.900737 C 175.03094 33.900737 174.019115 32.888912 174.019115 31.639337 C 174.019115 30.391604 175.03094 29.379779 176.280516 29.379779 C 177.528249 29.379779 178.540074 30.391604 178.540074 31.639337 Z M 178.540074 31.639337 " transform="matrix(2.119469,0,0,2.119469,10.5,10.5)"/>
<path style="fill-rule:nonzero;fill:rgb(97.647059%,85.882353%,82.352941%);fill-opacity:1;stroke-width:10;stroke-linecap:butt;stroke-linejoin:round;stroke:rgb(7.45098%,11.764706%,14.509804%);stroke-opacity:1;stroke-miterlimit:10;" d="M 198.879779 113 C 198.879779 160.430438 160.430438 198.879779 113 198.879779 C 65.569562 198.879779 27.120221 160.430438 27.120221 113 C 27.120221 65.569562 65.569562 27.120221 113 27.120221 C 160.430438 27.120221 198.879779 65.569562 198.879779 113 Z M 198.879779 113 " transform="matrix(2.119469,0,0,2.119469,10.5,10.5)"/>
<path style="fill-rule:nonzero;fill:rgb(94.509804%,73.72549%,9.803922%);fill-opacity:1;stroke-width:10;stroke-linecap:butt;stroke-linejoin:round;stroke:rgb(7.45098%,11.764706%,14.509804%);stroke-opacity:1;stroke-miterlimit:10;" d="M 198.879779 36.160295 C 198.879779 41.15307 194.83248 45.200369 189.839705 45.200369 C 184.84693 45.200369 180.799631 41.15307 180.799631 36.160295 C 180.799631 31.16752 184.84693 27.120221 189.839705 27.120221 C 194.83248 27.120221 198.879779 31.16752 198.879779 36.160295 Z M 198.879779 36.160295 " transform="matrix(2.119469,0,0,2.119469,10.5,10.5)"/>
<path style="fill-rule:nonzero;fill:rgb(93.333333%,24.313725%,32.941176%);fill-opacity:1;stroke-width:10;stroke-linecap:butt;stroke-linejoin:round;stroke:rgb(7.45098%,11.764706%,14.509804%);stroke-opacity:1;stroke-miterlimit:10;" d="M 36.160295 58.759558 C 36.160295 61.256867 34.136645 63.280516 31.639337 63.280516 C 29.143871 63.280516 27.120221 61.256867 27.120221 58.759558 C 27.120221 56.264092 29.143871 54.240442 31.639337 54.240442 C 34.136645 54.240442 36.160295 56.264092 36.160295 58.759558 Z M 36.160295 58.759558 " transform="matrix(2.119469,0,0,2.119469,10.5,10.5)"/>
<path style="fill-rule:nonzero;fill:rgb(98.431373%,80.392157%,34.901961%);fill-opacity:1;stroke-width:10;stroke-linecap:butt;stroke-linejoin:round;stroke:rgb(7.45098%,11.764706%,14.509804%);stroke-opacity:1;stroke-miterlimit:10;" d="M 180.799631 174.019115 C 180.799631 176.516424 178.775982 178.540074 176.280516 178.540074 C 173.783207 178.540074 171.759558 176.516424 171.759558 174.019115 C 171.759558 171.52365 173.783207 169.5 176.280516 169.5 C 178.775982 169.5 180.799631 171.52365 180.799631 174.019115 Z M 47.459926 176.280516 C 47.459926 181.273291 43.412627 185.32059 38.419853 185.32059 C 33.427078 185.32059 29.379779 181.273291 29.379779 176.280516 C 29.379779 171.287741 33.427078 167.240442 38.419853 167.240442 C 43.412627 167.240442 47.459926 171.287741 47.459926 176.280516 Z M 47.459926 176.280516 " transform="matrix(2.119469,0,0,2.119469,10.5,10.5)"/>
<path style="fill-rule:nonzero;fill:rgb(93.333333%,24.313725%,32.941176%);fill-opacity:1;stroke-width:10;stroke-linecap:butt;stroke-linejoin:round;stroke:rgb(7.45098%,11.764706%,14.509804%);stroke-opacity:1;stroke-miterlimit:10;" d="M 58.759558 187.580147 C 58.759558 190.075613 56.735908 192.099263 54.240442 192.099263 C 51.743133 192.099263 49.719484 190.075613 49.719484 187.580147 C 49.719484 185.082839 51.743133 183.059189 54.240442 183.059189 C 56.735908 183.059189 58.759558 185.082839 58.759558 187.580147 Z M 58.759558 187.580147 " transform="matrix(2.119469,0,0,2.119469,10.5,10.5)"/>
<path style="fill-rule:nonzero;fill:rgb(100%,100%,100%);fill-opacity:1;stroke-width:10;stroke-linecap:butt;stroke-linejoin:round;stroke:rgb(7.45098%,11.764706%,14.509804%);stroke-opacity:1;stroke-miterlimit:10;" d="M 155.863404 177.448999 C 155.863404 180.547136 153.35135 183.059189 150.25137 183.059189 C 147.153233 183.059189 144.639337 180.547136 144.639337 177.448999 C 144.639337 174.349018 147.153233 171.836965 150.25137 171.836965 C 153.35135 171.836965 155.863404 174.349018 155.863404 177.448999 Z M 38.419853 108.480885 C 38.419853 109.728618 37.408028 110.740442 36.160295 110.740442 C 34.912562 110.740442 33.900737 109.728618 33.900737 108.480885 C 33.900737 107.231309 34.912562 106.219484 36.160295 106.219484 C 37.408028 106.219484 38.419853 107.231309 38.419853 108.480885 Z M 38.419853 108.480885 " transform="matrix(2.119469,0,0,2.119469,10.5,10.5)"/>
<path style="fill-rule:nonzero;fill:rgb(94.509804%,73.72549%,9.803922%);fill-opacity:1;stroke-width:10;stroke-linecap:butt;stroke-linejoin:round;stroke:rgb(7.45098%,11.764706%,14.509804%);stroke-opacity:1;stroke-miterlimit:10;" d="M 196.620221 70.059189 C 196.620221 71.308765 195.608396 72.32059 194.360663 72.32059 C 193.111088 72.32059 192.099263 71.308765 192.099263 70.059189 C 192.099263 68.811456 193.111088 67.799631 194.360663 67.799631 C 195.608396 67.799631 196.620221 68.811456 196.620221 70.059189 Z M 196.620221 70.059189 " transform="matrix(2.119469,0,0,2.119469,10.5,10.5)"/>
<path style="fill-rule:nonzero;fill:rgb(100%,100%,100%);fill-opacity:1;stroke-width:10;stroke-linecap:butt;stroke-linejoin:round;stroke:rgb(7.45098%,11.764706%,14.509804%);stroke-opacity:1;stroke-miterlimit:10;" d="M 185.32059 149.160295 C 185.32059 151.655761 183.29694 153.67941 180.799631 153.67941 C 178.304166 153.67941 176.280516 151.655761 176.280516 149.160295 C 176.280516 146.662986 178.304166 144.639337 180.799631 144.639337 C 183.29694 144.639337 185.32059 146.662986 185.32059 149.160295 Z M 185.32059 149.160295 " transform="matrix(2.119469,0,0,2.119469,10.5,10.5)"/>
<path style="fill-rule:nonzero;fill:rgb(53.333333%,80.392157%,84.313725%);fill-opacity:1;stroke-width:10;stroke-linecap:butt;stroke-linejoin:round;stroke:rgb(7.45098%,11.764706%,14.509804%);stroke-opacity:1;stroke-miterlimit:10;" d="M 141.062011 152.424305 C 138.201624 148.564995 136.802763 143.957415 136.788019 143.909496 L 136.399139 142.606472 L 135.050039 142.796304 C 127.891701 143.813658 120.550904 144.329707 113.237751 144.329707 C 105.91907 144.329707 98.416085 143.813658 90.942589 142.796304 L 89.600861 142.612001 L 89.211981 143.909496 C 89.197237 143.957415 87.798376 148.564995 84.937989 152.424305 C 83.944595 153.76419 82.753996 154.359489 81.076837 154.359489 C 79.32227 154.359489 77.274661 153.719957 75.109098 153.043564 L 73.675219 152.599393 C 67.52502 150.750832 58.151357 144.554557 54.140919 140.927469 C 52.384509 139.244781 50.532261 137.47547 51.641767 127.066023 C 52.883971 115.395942 60.224768 85.992204 62.825287 79.639271 C 65.164095 73.927714 69.163475 71.430405 73.400607 69.176377 C 78.096653 67.080849 83.32165 65.346555 88.824945 64.063805 C 90.120596 63.794722 91.244846 63.660181 92.232711 63.660181 C 95.164976 63.660181 95.996183 64.889483 96.366633 65.812843 L 98.801279 71.880105 L 100.12089 71.572319 C 104.359864 70.586296 108.676246 70.086835 112.950238 70.086835 C 117.22423 70.086835 121.573787 70.588139 125.886482 71.574162 L 127.20425 71.874576 L 129.63521 65.812843 C 130.00566 64.889483 130.83871 63.660181 133.769132 63.660181 C 134.756997 63.660181 135.88309 63.794722 137.20823 64.07302 C 142.680193 65.346555 147.903347 67.080849 152.698917 69.222452 C 156.836525 71.430405 160.835905 73.924028 163.174713 79.637428 C 165.775232 85.992204 173.116029 115.394099 174.358233 127.06418 C 175.465896 137.471784 173.615491 139.242938 171.825907 140.953272 C 167.848643 144.552714 158.47498 150.747146 152.324781 152.592021 L 150.887216 153.036192 C 148.725339 153.719957 146.681416 154.359489 144.923163 154.359489 C 143.246004 154.357646 142.055405 153.760504 141.062011 152.424305 Z M 141.062011 152.424305 " transform="matrix(2.119469,0,0,2.119469,10.5,10.5)"/>
<path style="fill-rule:nonzero;fill:rgb(27.843137%,16.862745%,16.078431%);fill-opacity:1;stroke-width:10;stroke-linecap:butt;stroke-linejoin:round;stroke:rgb(7.45098%,11.764706%,14.509804%);stroke-opacity:1;stroke-miterlimit:10;" d="M 133.767289 65.241502 C 131.568551 65.241502 131.264451 65.998989 131.098578 66.406299 L 129.170766 71.211084 L 128.16447 73.721294 L 125.528934 73.118623 C 121.334192 72.15656 117.10259 71.671842 112.946552 71.671842 C 108.792357 71.671842 104.597615 72.15656 100.474752 73.114937 L 97.833687 73.728666 L 96.823705 71.211084 L 94.895893 66.406299 C 94.731863 66.000832 94.429606 65.243346 92.230868 65.243346 C 91.364643 65.243346 90.315958 65.372358 89.114301 65.62301 C 83.811897 66.857842 78.719598 68.546059 74.043825 70.626843 C 69.959665 72.801621 66.415514 75.048278 64.288655 80.241943 C 61.778445 86.368182 54.413687 115.945166 53.21203 127.237425 C 52.185461 136.870955 53.682004 138.302991 55.265168 139.819807 C 59.01021 143.201771 68.27882 149.329854 74.130448 151.086264 C 74.613322 151.23002 75.099883 151.381149 75.580914 151.532278 C 77.628523 152.169967 79.561864 152.776324 81.076837 152.776324 C 82.263749 152.776324 82.965945 152.424305 83.66814 151.47883 C 86.349752 147.860957 87.680421 143.498499 87.695166 143.45611 L 88.474768 140.868492 L 91.152694 141.227884 C 98.557998 142.236022 105.987262 142.746542 113.235908 142.746542 C 120.475339 142.746542 127.740573 142.237865 134.827032 141.229727 L 137.527075 140.848219 L 138.304834 143.459796 C 138.315892 143.498499 139.650248 147.860957 142.33186 151.480673 C 143.034055 152.426148 143.736251 152.776324 144.923163 152.776324 C 146.438136 152.776324 148.371477 152.17181 150.419086 151.532278 C 150.900117 151.381149 151.386678 151.23002 151.869552 151.086264 C 157.72118 149.328011 166.98979 143.201771 170.799338 139.755301 C 172.317996 138.301148 173.814539 136.867269 172.78797 127.235582 C 171.586313 115.943323 164.221555 86.366339 161.711345 80.238257 C 159.584486 75.048278 156.036649 72.801621 151.956175 70.625 C 147.280402 68.544216 142.18626 66.855999 136.815664 65.608266 C 135.682199 65.370515 134.633514 65.241502 133.767289 65.241502 M 133.767289 62.077016 C 134.985533 62.077016 136.275656 62.263162 137.53629 62.52303 C 143.157538 63.82974 148.430454 65.578777 153.347664 67.777515 C 157.582953 70.029701 162.046777 72.703941 164.641767 79.038443 C 167.301262 85.538818 174.693665 115.239284 175.934026 126.898307 C 177.061962 137.503115 175.27422 139.849295 172.922511 142.101481 C 168.873369 145.761743 159.269327 152.166281 152.78001 154.114366 C 150.052323 154.934515 147.341222 155.940811 144.923163 155.940811 C 142.976921 155.940811 141.218668 155.288377 139.792161 153.364252 C 136.717983 149.219272 135.274889 144.362882 135.274889 144.362882 C 127.993068 145.396823 120.644898 145.911029 113.237751 145.911029 C 105.79743 145.911029 98.292602 145.393137 90.726954 144.362882 C 90.726954 144.362882 89.282017 149.219272 86.209682 153.364252 C 84.781332 155.288377 83.023079 155.940811 81.076837 155.940811 C 78.658778 155.940811 75.947677 154.934515 73.221833 154.116209 C 66.732516 152.168124 57.128474 145.763586 53.081175 142.105167 C 50.727623 139.851138 48.938038 137.504958 50.067817 126.901993 C 51.308178 115.241127 58.698738 85.540661 61.361919 79.042129 C 63.953223 72.705784 68.41889 70.033387 72.654179 67.779358 C 77.571389 65.582463 82.844305 63.831583 88.465553 62.524873 C 89.722501 62.263162 91.012624 62.077016 92.230868 62.077016 C 94.706061 62.077016 96.87531 62.834502 97.833687 65.226758 L 99.761499 70.029701 C 104.125799 69.017876 108.521431 68.505513 112.948395 68.505513 C 117.34587 68.505513 121.774677 69.008661 126.236658 70.029701 L 128.16447 65.226758 C 129.12469 62.834502 131.292096 62.077016 133.767289 62.077016 Z M 133.767289 62.077016 " transform="matrix(2.119469,0,0,2.119469,10.5,10.5)"/>
<path style="fill-rule:nonzero;fill:rgb(27.843137%,16.862745%,16.078431%);fill-opacity:1;stroke-width:10;stroke-linecap:butt;stroke-linejoin:round;stroke:rgb(7.45098%,11.764706%,14.509804%);stroke-opacity:1;stroke-miterlimit:10;" d="M 113.375979 145.912872 C 99.807574 145.912872 86.301833 143.728879 72.956436 139.364578 C 72.127071 139.093652 71.675528 138.199781 71.946454 137.370417 C 72.21738 136.541052 73.114937 136.087666 73.942458 136.358592 C 99.984505 144.875245 126.649498 144.878931 153.196536 136.354906 C 154.042488 136.096882 154.921614 136.548424 155.187011 137.377789 C 155.452407 138.21084 154.995335 139.102867 154.164128 139.370107 C 140.568078 143.730722 126.938854 145.912872 113.375979 145.912872 Z M 147.606619 79.694562 C 147.402042 79.694562 147.191936 79.654016 146.992889 79.567393 C 124.603732 70.105265 102.115051 70.103422 80.153477 79.563707 C 79.348072 79.904668 78.417341 79.541591 78.074537 78.738028 C 77.728047 77.936309 78.098496 77.001892 78.898372 76.659088 C 101.68931 66.846784 125.014728 66.841255 148.224034 76.655402 C 149.02944 76.99452 149.403575 77.923408 149.064457 78.72697 C 148.810119 79.333328 148.222191 79.694562 147.606619 79.694562 Z M 147.606619 79.694562 " transform="matrix(2.119469,0,0,2.119469,10.5,10.5)"/>
<path style="fill-rule:nonzero;fill:rgb(27.843137%,16.862745%,16.078431%);fill-opacity:1;stroke-width:10;stroke-linecap:butt;stroke-linejoin:round;stroke:rgb(7.45098%,11.764706%,14.509804%);stroke-opacity:1;stroke-miterlimit:10;" d="M 147.606619 86.021692 C 147.461019 86.021692 147.311733 85.992204 147.16982 85.93507 C 146.298066 85.568306 145.43184 85.212601 144.563772 84.873483 C 132.580376 80.194024 120.501142 78.17959 108.635699 78.903901 C 107.948248 78.979466 107.476432 78.467103 107.439571 77.844158 C 107.404554 77.21937 107.87637 76.68489 108.501158 76.64803 C 120.690974 75.920032 133.098268 77.969484 145.385765 82.76874 C 146.274106 83.113387 147.162448 83.474622 148.050789 83.8506 C 148.625816 84.092037 148.894898 84.757372 148.653461 85.330555 C 148.463629 85.761825 148.04526 86.021692 147.606619 86.021692 Z M 97.866861 80.27696 C 97.339754 80.27696 96.866095 79.904668 96.761042 79.364659 C 96.639402 78.752773 97.03934 78.159316 97.654913 78.039519 C 99.50716 77.676442 101.388896 77.374184 103.246673 77.140119 C 103.858559 77.049811 104.428056 77.497668 104.50915 78.120613 C 104.586557 78.739871 104.149759 79.305682 103.528657 79.384933 C 101.722485 79.613469 99.894197 79.904668 98.088025 80.25853 C 98.012461 80.273274 97.93874 80.27696 97.866861 80.27696 Z M 81.662921 85.129665 C 81.216907 85.129665 80.79301 84.862425 80.614235 84.42194 C 80.378327 83.841385 80.662154 83.183422 81.23718 82.9512 C 84.950891 81.454658 88.732793 80.19771 92.488893 79.21906 C 93.098937 79.045815 93.70898 79.42548 93.863795 80.026308 C 94.022296 80.630823 93.661061 81.246395 93.05839 81.403053 C 89.398128 82.36143 85.708377 83.585204 82.086818 85.046728 C 81.946748 85.102019 81.802991 85.129665 81.662921 85.129665 Z M 81.662921 85.129665 " transform="matrix(2.119469,0,0,2.119469,10.5,10.5)"/>
<path style="fill-rule:nonzero;fill:rgb(100%,99.607843%,95.686275%);fill-opacity:1;stroke-width:10;stroke-linecap:butt;stroke-linejoin:round;stroke:rgb(7.45098%,11.764706%,14.509804%);stroke-opacity:1;stroke-miterlimit:10;" d="M 102.378605 114.129779 C 102.378605 121.36921 97.520371 127.237425 91.530516 127.237425 C 85.538818 127.237425 80.682428 121.36921 80.682428 114.129779 C 80.682428 106.890348 85.538818 101.022133 91.530516 101.022133 C 97.520371 101.022133 102.378605 106.890348 102.378605 114.129779 Z M 102.378605 114.129779 " transform="matrix(2.119469,0,0,2.119469,10.5,10.5)"/>
<path style="fill-rule:nonzero;fill:rgb(27.843137%,16.862745%,16.078431%);fill-opacity:1;stroke-width:10;stroke-linecap:butt;stroke-linejoin:round;stroke:rgb(7.45098%,11.764706%,14.509804%);stroke-opacity:1;stroke-miterlimit:10;" d="M 91.530516 102.603454 C 86.419787 102.603454 82.263749 107.775003 82.263749 114.129779 C 82.263749 120.484554 86.419787 125.656103 91.530516 125.656103 C 96.639402 125.656103 100.79544 120.484554 100.79544 114.129779 C 100.79544 107.775003 96.639402 102.603454 91.530516 102.603454 M 91.530516 99.440811 C 98.395812 99.440811 103.959926 106.01675 103.959926 114.129779 C 103.959926 122.242807 98.395812 128.82059 91.530516 128.82059 C 84.663377 128.82059 79.099263 122.242807 79.099263 114.129779 C 79.099263 106.01675 84.663377 99.440811 91.530516 99.440811 Z M 91.530516 99.440811 " transform="matrix(2.119469,0,0,2.119469,10.5,10.5)"/>
<path style="fill-rule:nonzero;fill:rgb(100%,99.607843%,95.686275%);fill-opacity:1;stroke-width:10;stroke-linecap:butt;stroke-linejoin:round;stroke:rgb(7.45098%,11.764706%,14.509804%);stroke-opacity:1;stroke-miterlimit:10;" d="M 145.317572 114.129779 C 145.317572 121.36921 140.461182 127.237425 134.469484 127.237425 C 128.479629 127.237425 123.621395 121.36921 123.621395 114.129779 C 123.621395 106.890348 128.479629 101.022133 134.469484 101.022133 C 140.461182 101.022133 145.317572 106.890348 145.317572 114.129779 Z M 145.317572 114.129779 " transform="matrix(2.119469,0,0,2.119469,10.5,10.5)"/>
<path style="fill-rule:nonzero;fill:rgb(27.843137%,16.862745%,16.078431%);fill-opacity:1;stroke-width:10;stroke-linecap:butt;stroke-linejoin:round;stroke:rgb(7.45098%,11.764706%,14.509804%);stroke-opacity:1;stroke-miterlimit:10;" d="M 134.469484 102.603454 C 129.360598 102.603454 125.20456 107.775003 125.20456 114.129779 C 125.20456 120.484554 129.360598 125.656103 134.469484 125.656103 C 139.580213 125.656103 143.736251 120.484554 143.736251 114.129779 C 143.736251 107.775003 139.580213 102.603454 134.469484 102.603454 M 134.469484 99.440811 C 141.336623 99.440811 146.900737 106.01675 146.900737 114.129779 C 146.900737 122.242807 141.336623 128.82059 134.469484 128.82059 C 127.604188 128.82059 122.040074 122.242807 122.040074 114.129779 C 122.040074 106.01675 127.604188 99.440811 134.469484 99.440811 Z M 134.469484 99.440811 " transform="matrix(2.119469,0,0,2.119469,10.5,10.5)"/>
<path style=" stroke:none;fill-rule:nonzero;fill:rgb(40%,40%,40%);fill-opacity:1;" d="M 384.121094 72.769531 C 381.472656 72.769531 379.328125 74.914062 379.328125 77.558594 C 379.328125 80.207031 381.472656 82.351562 384.121094 82.351562 C 386.765625 82.351562 388.910156 80.207031 388.910156 77.558594 C 388.910156 74.914062 386.765625 72.769531 384.121094 72.769531 Z M 384.121094 72.769531 "/>
<path style=" stroke:none;fill-rule:nonzero;fill:rgb(100%,100%,100%);fill-opacity:1;" d="M 250 67.980469 C 149.472656 67.980469 67.980469 149.472656 67.980469 250 C 67.980469 350.527344 149.472656 432.019531 250 432.019531 C 350.527344 432.019531 432.019531 350.527344 432.019531 250 C 432.019531 149.472656 350.527344 67.980469 250 67.980469 Z M 250 67.980469 "/>
<path style=" stroke:none;fill-rule:nonzero;fill:rgb(40%,40%,40%);fill-opacity:1;" d="M 412.859375 67.980469 C 402.277344 67.980469 393.699219 76.558594 393.699219 87.140625 C 393.699219 97.722656 402.277344 106.300781 412.859375 106.300781 C 423.441406 106.300781 432.019531 97.722656 432.019531 87.140625 C 432.019531 76.558594 423.441406 67.980469 412.859375 67.980469 Z M 412.859375 67.980469 "/>
<path style=" stroke:none;fill-rule:nonzero;fill:rgb(94.509804%,76.862745%,5.882353%);fill-opacity:1;" d="M 77.558594 125.460938 C 72.269531 125.460938 67.980469 129.75 67.980469 135.039062 C 67.980469 140.332031 72.269531 144.621094 77.558594 144.621094 C 82.851562 144.621094 87.140625 140.332031 87.140625 135.039062 C 87.140625 129.75 82.851562 125.460938 77.558594 125.460938 Z M 77.558594 125.460938 "/>
<path style=" stroke:none;fill-rule:nonzero;fill:rgb(90.196078%,49.411765%,13.333333%);fill-opacity:1;" d="M 384.121094 369.75 C 378.828125 369.75 374.539062 374.039062 374.539062 379.328125 C 374.539062 384.621094 378.828125 388.910156 384.121094 388.910156 C 389.410156 388.910156 393.699219 384.621094 393.699219 379.328125 C 393.699219 374.039062 389.410156 369.75 384.121094 369.75 Z M 91.929688 364.960938 C 81.347656 364.960938 72.769531 373.539062 72.769531 384.121094 C 72.769531 394.703125 81.347656 403.28125 91.929688 403.28125 C 102.511719 403.28125 111.089844 394.703125 111.089844 384.121094 C 111.089844 373.539062 102.511719 364.960938 91.929688 364.960938 Z M 91.929688 364.960938 "/>
<path style=" stroke:none;fill-rule:nonzero;fill:rgb(94.509804%,76.862745%,5.882353%);fill-opacity:1;" d="M 125.460938 398.488281 C 120.167969 398.488281 115.878906 402.777344 115.878906 408.070312 C 115.878906 413.359375 120.167969 417.648438 125.460938 417.648438 C 130.75 417.648438 135.039062 413.359375 135.039062 408.070312 C 135.039062 402.777344 130.75 398.488281 125.460938 398.488281 Z M 125.460938 398.488281 "/>
<path style=" stroke:none;fill-rule:nonzero;fill:rgb(100%,100%,100%);fill-opacity:1;" d="M 328.953125 374.703125 C 322.386719 374.703125 317.058594 380.027344 317.058594 386.597656 C 317.058594 393.164062 322.386719 398.488281 328.953125 398.488281 C 335.523438 398.488281 340.847656 393.164062 340.847656 386.597656 C 340.847656 380.027344 335.523438 374.703125 328.953125 374.703125 Z M 87.140625 235.628906 C 84.496094 235.628906 82.351562 237.773438 82.351562 240.421875 C 82.351562 243.066406 84.496094 245.210938 87.140625 245.210938 C 89.785156 245.210938 91.929688 243.066406 91.929688 240.421875 C 91.929688 237.773438 89.785156 235.628906 87.140625 235.628906 Z M 87.140625 235.628906 "/>
<path style=" stroke:none;fill-rule:nonzero;fill:rgb(40%,40%,40%);fill-opacity:1;" d="M 422.441406 154.199219 C 419.792969 154.199219 417.648438 156.34375 417.648438 158.988281 C 417.648438 161.636719 419.792969 163.78125 422.441406 163.78125 C 425.085938 163.78125 427.230469 161.636719 427.230469 158.988281 C 427.230469 156.34375 425.085938 154.199219 422.441406 154.199219 Z M 422.441406 154.199219 "/>
<path style=" stroke:none;fill-rule:nonzero;fill:rgb(100%,100%,100%);fill-opacity:1;" d="M 393.699219 317.058594 C 388.410156 317.058594 384.121094 321.347656 384.121094 326.640625 C 384.121094 331.929688 388.410156 336.21875 393.699219 336.21875 C 398.992188 336.21875 403.28125 331.929688 403.28125 326.640625 C 403.28125 321.347656 398.992188 317.058594 393.699219 317.058594 Z M 393.699219 317.058594 "/>
<path style=" stroke:none;fill-rule:nonzero;fill:rgb(53.333333%,80.392157%,84.313725%);fill-opacity:1;" d="M 317.660156 337.660156 C 314.105469 337.65625 311.582031 336.390625 309.476562 333.558594 C 303.414062 325.378906 300.449219 315.613281 300.417969 315.511719 L 299.59375 312.75 L 296.734375 313.152344 C 281.5625 315.308594 266.003906 316.402344 250.503906 316.402344 C 234.992188 316.402344 219.089844 315.308594 203.25 313.152344 L 200.40625 312.761719 L 199.582031 315.511719 C 199.550781 315.613281 196.585938 325.378906 190.523438 333.558594 C 188.417969 336.398438 185.894531 337.660156 182.339844 337.660156 C 178.621094 337.660156 174.28125 336.304688 169.691406 334.871094 L 166.652344 333.929688 C 153.617188 330.011719 133.75 316.878906 125.25 309.191406 C 121.527344 305.625 117.601562 301.875 119.953125 279.8125 C 122.585938 255.078125 138.144531 192.757812 143.65625 179.292969 C 148.613281 167.1875 157.089844 161.894531 166.070312 157.117188 C 176.023438 152.675781 187.097656 149 198.761719 146.28125 C 201.507812 145.710938 203.890625 145.425781 205.984375 145.425781 C 212.199219 145.425781 213.960938 148.03125 214.746094 149.988281 L 219.90625 162.847656 L 222.703125 162.195312 C 231.6875 160.105469 240.835938 159.046875 249.894531 159.046875 C 258.953125 159.046875 268.171875 160.109375 277.3125 162.199219 L 280.105469 162.835938 L 285.257812 149.988281 C 286.042969 148.03125 287.808594 145.425781 294.019531 145.425781 C 296.113281 145.425781 298.5 145.710938 301.308594 146.300781 C 312.90625 149 323.976562 152.675781 334.140625 157.214844 C 342.910156 161.894531 351.386719 167.179688 356.34375 179.289062 C 361.855469 192.757812 377.414062 255.074219 380.046875 279.808594 C 382.394531 301.867188 378.472656 305.621094 374.679688 309.246094 C 366.25 316.875 346.382812 330.003906 333.347656 333.914062 L 330.300781 334.855469 C 325.71875 336.304688 321.386719 337.660156 317.660156 337.660156 Z M 317.660156 337.660156 "/>
<path style=" stroke:none;fill-rule:nonzero;fill:rgb(27.843137%,16.862745%,16.078431%);fill-opacity:1;" d="M 294.015625 148.777344 C 295.851562 148.777344 298.074219 149.050781 300.476562 149.554688 C 311.859375 152.199219 322.65625 155.777344 332.566406 160.1875 C 341.214844 164.800781 348.734375 169.5625 353.242188 180.5625 C 358.5625 193.550781 374.171875 256.238281 376.71875 280.171875 C 378.894531 300.585938 375.722656 303.625 372.503906 306.707031 C 364.429688 314.011719 344.785156 326.996094 332.382812 330.722656 C 331.359375 331.027344 330.328125 331.347656 329.308594 331.667969 C 324.96875 333.023438 320.871094 334.304688 317.660156 334.304688 C 315.144531 334.304688 313.65625 333.5625 312.167969 331.558594 C 306.484375 323.886719 303.65625 314.640625 303.632812 314.558594 L 301.984375 309.023438 L 296.261719 309.832031 C 281.242188 311.96875 265.84375 313.046875 250.5 313.046875 C 235.136719 313.046875 219.390625 311.964844 203.695312 309.828125 L 198.019531 309.066406 L 196.367188 314.550781 C 196.335938 314.640625 193.515625 323.886719 187.832031 331.554688 C 186.34375 333.558594 184.855469 334.304688 182.339844 334.304688 C 179.128906 334.304688 175.03125 333.019531 170.691406 331.667969 C 169.671875 331.347656 168.640625 331.027344 167.617188 330.722656 C 155.214844 327 135.570312 314.011719 127.632812 306.84375 C 124.277344 303.628906 121.105469 300.59375 123.28125 280.175781 C 125.828125 256.242188 141.4375 193.554688 146.757812 180.570312 C 151.265625 169.5625 158.777344 164.800781 167.433594 160.191406 C 177.34375 155.78125 188.136719 152.203125 199.375 149.585938 C 201.921875 149.054688 204.144531 148.78125 205.980469 148.78125 C 210.640625 148.78125 211.28125 150.386719 211.628906 151.246094 L 215.714844 161.429688 L 217.855469 166.765625 L 223.453125 165.464844 C 232.191406 163.433594 241.082031 162.40625 249.886719 162.40625 C 258.695312 162.40625 267.664062 163.433594 276.554688 165.472656 L 282.140625 166.75 L 284.273438 161.429688 L 288.359375 151.246094 C 288.710938 150.382812 289.355469 148.777344 294.015625 148.777344 M 294.015625 142.070312 C 288.769531 142.070312 284.175781 143.675781 282.140625 148.746094 L 278.054688 158.925781 C 268.597656 156.761719 259.210938 155.695312 249.890625 155.695312 C 240.507812 155.695312 231.191406 156.78125 221.941406 158.925781 L 217.855469 148.746094 C 215.824219 143.675781 211.226562 142.070312 205.980469 142.070312 C 203.398438 142.070312 200.664062 142.464844 198 143.019531 C 186.085938 145.789062 174.910156 149.5 164.488281 154.15625 C 155.511719 158.933594 146.046875 164.597656 140.554688 178.027344 C 134.910156 191.800781 119.246094 254.75 116.617188 279.464844 C 114.222656 301.9375 118.015625 306.910156 123.003906 311.6875 C 131.582031 319.441406 151.9375 333.015625 165.691406 337.144531 C 171.46875 338.878906 177.214844 341.011719 182.339844 341.011719 C 186.464844 341.011719 190.191406 339.628906 193.21875 335.550781 C 199.730469 326.765625 202.792969 316.472656 202.792969 316.472656 C 218.828125 318.65625 234.734375 319.753906 250.503906 319.753906 C 266.203125 319.753906 281.777344 318.664062 297.210938 316.472656 C 297.210938 316.472656 300.269531 326.765625 306.785156 335.550781 C 309.808594 339.628906 313.535156 341.011719 317.660156 341.011719 C 322.785156 341.011719 328.53125 338.878906 334.3125 337.140625 C 348.066406 333.011719 368.421875 319.4375 377.003906 311.679688 C 381.988281 306.90625 385.777344 301.933594 383.386719 279.457031 C 380.757812 254.746094 365.089844 191.796875 359.453125 178.019531 C 353.953125 164.59375 344.492188 158.925781 335.515625 154.152344 C 325.09375 149.492188 313.917969 145.785156 302.003906 143.015625 C 299.332031 142.464844 296.597656 142.070312 294.015625 142.070312 Z M 294.015625 142.070312 "/>
<path style=" stroke:none;fill-rule:nonzero;fill:rgb(27.843137%,16.862745%,16.078431%);fill-opacity:1;" d="M 250.796875 319.757812 C 222.039062 319.757812 193.414062 315.128906 165.128906 305.878906 C 163.371094 305.304688 162.414062 303.410156 162.988281 301.652344 C 163.5625 299.894531 165.464844 298.933594 167.21875 299.507812 C 222.414062 317.558594 278.929688 317.566406 335.195312 299.5 C 336.988281 298.953125 338.851562 299.910156 339.414062 301.667969 C 339.976562 303.433594 339.007812 305.324219 337.246094 305.890625 C 308.429688 315.132812 279.542969 319.757812 250.796875 319.757812 Z M 323.347656 179.410156 C 322.914062 179.410156 322.46875 179.324219 322.046875 179.140625 C 274.59375 159.085938 226.929688 159.082031 180.382812 179.132812 C 178.675781 179.855469 176.703125 179.085938 175.976562 177.382812 C 175.242188 175.683594 176.027344 173.703125 177.722656 172.976562 C 226.027344 152.179688 275.464844 152.167969 324.65625 172.96875 C 326.363281 173.6875 327.15625 175.65625 326.4375 177.359375 C 325.898438 178.644531 324.652344 179.410156 323.347656 179.410156 Z M 323.347656 179.410156 "/>
<path style=" stroke:none;fill-rule:nonzero;fill:rgb(27.843137%,16.862745%,16.078431%);fill-opacity:1;" d="M 323.347656 192.820312 C 323.039062 192.820312 322.722656 192.757812 322.421875 192.636719 C 320.574219 191.859375 318.738281 191.105469 316.898438 190.386719 C 291.5 180.46875 265.898438 176.199219 240.75 177.734375 C 239.292969 177.894531 238.292969 176.808594 238.214844 175.488281 C 238.140625 174.164062 239.140625 173.03125 240.464844 172.953125 C 266.300781 171.410156 292.597656 175.753906 318.640625 185.925781 C 320.523438 186.65625 322.40625 187.421875 324.289062 188.21875 C 325.507812 188.730469 326.078125 190.140625 325.566406 191.355469 C 325.164062 192.269531 324.277344 192.820312 323.347656 192.820312 Z M 217.925781 180.644531 C 216.808594 180.644531 215.804688 179.855469 215.582031 178.710938 C 215.324219 177.414062 216.171875 176.15625 217.476562 175.902344 C 221.402344 175.132812 225.390625 174.492188 229.328125 173.996094 C 230.625 173.804688 231.832031 174.753906 232.003906 176.074219 C 232.167969 177.386719 231.242188 178.585938 229.925781 178.753906 C 226.097656 179.238281 222.222656 179.855469 218.394531 180.605469 C 218.234375 180.636719 218.078125 180.644531 217.925781 180.644531 Z M 183.582031 190.929688 C 182.636719 190.929688 181.738281 190.363281 181.359375 189.429688 C 180.859375 188.199219 181.460938 186.804688 182.679688 186.3125 C 190.550781 183.140625 198.566406 180.476562 206.527344 178.402344 C 207.820312 178.035156 209.113281 178.839844 209.441406 180.113281 C 209.777344 181.394531 209.011719 182.699219 207.734375 183.03125 C 199.976562 185.0625 192.15625 187.65625 184.480469 190.753906 C 184.183594 190.871094 183.878906 190.929688 183.582031 190.929688 Z M 183.582031 190.929688 "/>
<path style=" stroke:none;fill-rule:nonzero;fill:rgb(100%,99.607843%,95.686275%);fill-opacity:1;" d="M 204.496094 224.613281 C 191.796875 224.613281 181.503906 237.050781 181.503906 252.394531 C 181.503906 267.738281 191.796875 280.175781 204.496094 280.175781 C 217.191406 280.175781 227.488281 267.738281 227.488281 252.394531 C 227.488281 237.050781 217.191406 224.613281 204.496094 224.613281 Z M 204.496094 224.613281 "/>
<path style=" stroke:none;fill-rule:nonzero;fill:rgb(27.843137%,16.862745%,16.078431%);fill-opacity:1;" d="M 204.496094 227.964844 C 215.324219 227.964844 224.132812 238.925781 224.132812 252.394531 C 224.132812 265.863281 215.324219 276.824219 204.496094 276.824219 C 193.664062 276.824219 184.855469 265.863281 184.855469 252.394531 C 184.855469 238.925781 193.664062 227.964844 204.496094 227.964844 M 204.496094 221.261719 C 189.941406 221.261719 178.148438 235.199219 178.148438 252.394531 C 178.148438 269.589844 189.941406 283.53125 204.496094 283.53125 C 219.046875 283.53125 230.839844 269.589844 230.839844 252.394531 C 230.839844 235.199219 219.046875 221.261719 204.496094 221.261719 Z M 204.496094 221.261719 "/>
<path style=" stroke:none;fill-rule:nonzero;fill:rgb(100%,99.607843%,95.686275%);fill-opacity:1;" d="M 295.503906 224.613281 C 282.808594 224.613281 272.511719 237.050781 272.511719 252.394531 C 272.511719 267.738281 282.808594 280.175781 295.503906 280.175781 C 308.203125 280.175781 318.496094 267.738281 318.496094 252.394531 C 318.496094 237.050781 308.203125 224.613281 295.503906 224.613281 Z M 295.503906 224.613281 "/>
<path style=" stroke:none;fill-rule:nonzero;fill:rgb(27.843137%,16.862745%,16.078431%);fill-opacity:1;" d="M 295.503906 227.964844 C 306.335938 227.964844 315.144531 238.925781 315.144531 252.394531 C 315.144531 265.863281 306.335938 276.824219 295.503906 276.824219 C 284.675781 276.824219 275.867188 265.863281 275.867188 252.394531 C 275.867188 238.925781 284.675781 227.964844 295.503906 227.964844 M 295.503906 221.261719 C 280.953125 221.261719 269.160156 235.199219 269.160156 252.394531 C 269.160156 269.589844 280.953125 283.53125 295.503906 283.53125 C 310.058594 283.53125 321.851562 269.589844 321.851562 252.394531 C 321.851562 235.199219 310.058594 221.261719 295.503906 221.261719 Z M 295.503906 221.261719 "/>
</g>
</svg>
