<?xml version="1.0" encoding="UTF-8"?>
<svg xmlns="http://www.w3.org/2000/svg" xmlns:xlink="http://www.w3.org/1999/xlink" width="500pt" height="500pt" viewBox="0 0 500 500" version="1.1">
<g id="surface1079597">
<path style="fill-rule:nonzero;fill:rgb(93.333333%,24.313725%,32.941176%);fill-opacity:1;stroke-width:10;stroke-linecap:butt;stroke-linejoin:round;stroke:rgb(7.45098%,11.764706%,14.509804%);stroke-opacity:1;stroke-miterlimit:10;" d="M 25.799429 49.879943 C 25.799429 51.780023 24.260251 53.320628 22.360171 53.320628 C 20.460092 53.320628 18.919486 51.780023 18.919486 49.879943 C 18.919486 47.979863 20.460092 46.440685 22.360171 46.440685 C 24.260251 46.440685 25.799429 47.979863 25.799429 49.879943 Z M 25.799429 49.879943 " transform="matrix(2.738372,0,0,2.738372,14.5,14.5)"/>
<path style="fill-rule:nonzero;fill:rgb(94.509804%,73.72549%,9.803922%);fill-opacity:1;stroke-width:10;stroke-linecap:butt;stroke-linejoin:round;stroke:rgb(7.45098%,11.764706%,14.509804%);stroke-opacity:1;stroke-miterlimit:10;" d="M 134.159601 22.360171 C 134.159601 23.310211 133.389298 24.080514 132.440685 24.080514 C 131.490645 24.080514 130.720342 23.310211 130.720342 22.360171 C 130.720342 21.410131 131.490645 20.639829 132.440685 20.639829 C 133.389298 20.639829 134.159601 21.410131 134.159601 22.360171 Z M 134.159601 22.360171 " transform="matrix(2.738372,0,0,2.738372,14.5,14.5)"/>
<path style="fill-rule:nonzero;fill:rgb(98.823529%,87.843137%,63.529412%);fill-opacity:1;stroke-width:10;stroke-linecap:butt;stroke-linejoin:round;stroke:rgb(7.45098%,11.764706%,14.509804%);stroke-opacity:1;stroke-miterlimit:10;" d="M 149.639829 86 C 149.639829 121.147193 121.147193 149.639829 86 149.639829 C 50.852807 149.639829 22.360171 121.147193 22.360171 86 C 22.360171 50.852807 50.852807 22.360171 86 22.360171 C 121.147193 22.360171 149.639829 50.852807 149.639829 86 Z M 149.639829 86 " transform="matrix(2.738372,0,0,2.738372,14.5,14.5)"/>
<path style="fill-rule:nonzero;fill:rgb(94.509804%,73.72549%,9.803922%);fill-opacity:1;stroke-width:10;stroke-linecap:butt;stroke-linejoin:round;stroke:rgb(7.45098%,11.764706%,14.509804%);stroke-opacity:1;stroke-miterlimit:10;" d="M 149.639829 25.799429 C 149.639829 29.599589 146.560045 32.679372 142.759886 32.679372 C 138.959727 32.679372 135.879943 29.599589 135.879943 25.799429 C 135.879943 22.000697 138.959727 18.919486 142.759886 18.919486 C 146.560045 18.919486 149.639829 22.000697 149.639829 25.799429 Z M 149.639829 25.799429 " transform="matrix(2.738372,0,0,2.738372,14.5,14.5)"/>
<path style="fill-rule:nonzero;fill:rgb(93.333333%,24.313725%,32.941176%);fill-opacity:1;stroke-width:10;stroke-linecap:butt;stroke-linejoin:round;stroke:rgb(7.45098%,11.764706%,14.509804%);stroke-opacity:1;stroke-miterlimit:10;" d="M 153.080514 41.279658 C 153.080514 43.179737 151.539908 44.720342 149.639829 44.720342 C 147.739749 44.720342 146.200571 43.179737 146.200571 41.279658 C 146.200571 39.379578 147.739749 37.840399 149.639829 37.840399 C 151.539908 37.840399 153.080514 39.379578 153.080514 41.279658 Z M 153.080514 41.279658 " transform="matrix(2.738372,0,0,2.738372,14.5,14.5)"/>
<path style="fill-rule:nonzero;fill:rgb(98.431373%,80.392157%,34.901961%);fill-opacity:1;stroke-width:10;stroke-linecap:butt;stroke-linejoin:round;stroke:rgb(7.45098%,11.764706%,14.509804%);stroke-opacity:1;stroke-miterlimit:10;" d="M 142.759886 130.720342 C 142.759886 132.620422 141.219281 134.159601 139.320628 134.159601 C 137.420548 134.159601 135.879943 132.620422 135.879943 130.720342 C 135.879943 128.820263 137.420548 127.279658 139.320628 127.279658 C 141.219281 127.279658 142.759886 128.820263 142.759886 130.720342 Z M 32.679372 108.360171 C 32.679372 112.16033 29.599589 115.240114 25.799429 115.240114 C 22.000697 115.240114 18.919486 112.16033 18.919486 108.360171 C 18.919486 104.560012 22.000697 101.480228 25.799429 101.480228 C 29.599589 101.480228 32.679372 104.560012 32.679372 108.360171 Z M 32.679372 108.360171 " transform="matrix(2.738372,0,0,2.738372,14.5,14.5)"/>
<path style="fill-rule:nonzero;fill:rgb(93.333333%,24.313725%,32.941176%);fill-opacity:1;stroke-width:10;stroke-linecap:butt;stroke-linejoin:round;stroke:rgb(7.45098%,11.764706%,14.509804%);stroke-opacity:1;stroke-miterlimit:10;" d="M 46.440685 149.639829 C 46.440685 151.539908 44.90008 153.080514 43 153.080514 C 41.09992 153.080514 39.559315 151.539908 39.559315 149.639829 C 39.559315 147.739749 41.09992 146.200571 43 146.200571 C 44.90008 146.200571 46.440685 147.739749 46.440685 149.639829 Z M 46.440685 149.639829 " transform="matrix(2.738372,0,0,2.738372,14.5,14.5)"/>
<path style="fill-rule:nonzero;fill:rgb(100%,100%,100%);fill-opacity:1;stroke-width:10;stroke-linecap:butt;stroke-linejoin:round;stroke:rgb(7.45098%,11.764706%,14.509804%);stroke-opacity:1;stroke-miterlimit:10;" d="M 36.120057 92.019772 C 36.120057 94.394871 34.194301 96.320628 31.820628 96.320628 C 29.445528 96.320628 27.519772 94.394871 27.519772 92.019772 C 27.519772 89.644672 29.445528 87.720342 31.820628 87.720342 C 34.194301 87.720342 36.120057 89.644672 36.120057 92.019772 Z M 36.120057 92.019772 " transform="matrix(2.738372,0,0,2.738372,14.5,14.5)"/>
<path style="fill-rule:nonzero;fill:rgb(94.509804%,73.72549%,9.803922%);fill-opacity:1;stroke-width:10;stroke-linecap:butt;stroke-linejoin:round;stroke:rgb(7.45098%,11.764706%,14.509804%);stroke-opacity:1;stroke-miterlimit:10;" d="M 37.840399 115.240114 C 37.840399 116.190154 37.070097 116.960456 36.120057 116.960456 C 35.170017 116.960456 34.399715 116.190154 34.399715 115.240114 C 34.399715 114.290074 35.170017 113.519772 36.120057 113.519772 C 37.070097 113.519772 37.840399 114.290074 37.840399 115.240114 Z M 37.840399 115.240114 " transform="matrix(2.738372,0,0,2.738372,14.5,14.5)"/>
<path style="fill-rule:nonzero;fill:rgb(100%,100%,100%);fill-opacity:1;stroke-width:10;stroke-linecap:butt;stroke-linejoin:round;stroke:rgb(7.45098%,11.764706%,14.509804%);stroke-opacity:1;stroke-miterlimit:10;" d="M 139.320628 58.480228 C 139.320628 59.430268 138.550325 60.200571 137.600285 60.200571 C 136.650245 60.200571 135.879943 59.430268 135.879943 58.480228 C 135.879943 57.530188 136.650245 56.759886 137.600285 56.759886 C 138.550325 56.759886 139.320628 57.530188 139.320628 58.480228 Z M 139.320628 58.480228 " transform="matrix(2.738372,0,0,2.738372,14.5,14.5)"/>
<path style="fill-rule:nonzero;fill:rgb(7.058824%,47.843137%,84.705882%);fill-opacity:1;stroke-width:10;stroke-linecap:butt;stroke-linejoin:round;stroke:rgb(7.45098%,11.764706%,14.509804%);stroke-opacity:1;stroke-miterlimit:10;" d="M 60.200571 124.355361 C 53.320628 124.355361 47.644639 118.679372 47.644639 111.799429 L 47.644639 60.200571 C 47.644639 53.320628 53.320628 47.644639 60.200571 47.644639 L 111.799429 47.644639 C 118.679372 47.644639 124.355361 53.320628 124.355361 60.200571 L 124.355361 111.799429 C 124.355361 118.679372 118.679372 124.355361 111.799429 124.355361 Z M 60.200571 124.355361 " transform="matrix(2.738372,0,0,2.738372,14.5,14.5)"/>
<path style="fill-rule:nonzero;fill:rgb(27.843137%,16.862745%,16.078431%);fill-opacity:1;stroke-width:10;stroke-linecap:butt;stroke-linejoin:round;stroke:rgb(7.45098%,11.764706%,14.509804%);stroke-opacity:1;stroke-miterlimit:10;" d="M 111.799429 48.848593 L 60.200571 48.848593 C 54.008194 48.848593 48.848593 54.008194 48.848593 60.200571 L 48.848593 111.799429 C 48.848593 117.991806 54.008194 123.151407 60.200571 123.151407 L 111.799429 123.151407 C 117.991806 123.151407 123.151407 117.991806 123.151407 111.799429 L 123.151407 60.200571 C 123.151407 54.008194 117.991806 48.848593 111.799429 48.848593 M 111.799429 46.440685 C 119.368365 46.440685 125.559315 52.631635 125.559315 60.200571 L 125.559315 111.799429 C 125.559315 119.368365 119.368365 125.559315 111.799429 125.559315 L 60.200571 125.559315 C 52.631635 125.559315 46.440685 119.368365 46.440685 111.799429 L 46.440685 60.200571 C 46.440685 52.631635 52.631635 46.440685 60.200571 46.440685 Z M 111.799429 46.440685 " transform="matrix(2.738372,0,0,2.738372,14.5,14.5)"/>
<path style="fill-rule:nonzero;fill:rgb(99.215686%,98.823529%,93.333333%);fill-opacity:1;stroke-width:10;stroke-linecap:butt;stroke-linejoin:round;stroke:rgb(7.45098%,11.764706%,14.509804%);stroke-opacity:1;stroke-miterlimit:10;" d="M 109.391521 117.820628 L 62.779658 117.820628 C 58.136445 117.820628 54.524582 114.03616 54.524582 109.564126 L 54.524582 62.435874 C 54.524582 57.792662 58.307623 54.179372 62.779658 54.179372 L 109.391521 54.179372 C 114.03616 54.179372 117.648023 57.96384 117.648023 62.435874 L 117.648023 109.391521 C 117.648023 114.03616 114.03616 117.820628 109.391521 117.820628 Z M 109.391521 117.820628 " transform="matrix(2.738372,0,0,2.738372,14.5,14.5)"/>
<path style="fill-rule:nonzero;fill:rgb(27.843137%,16.862745%,16.078431%);fill-opacity:1;stroke-width:10;stroke-linecap:butt;stroke-linejoin:round;stroke:rgb(7.45098%,11.764706%,14.509804%);stroke-opacity:1;stroke-miterlimit:10;" d="M 117.820628 81.527966 C 117.30424 81.527966 116.960456 81.184183 116.960456 80.667795 L 116.960456 73.960456 C 116.960456 73.444068 117.30424 73.100285 117.820628 73.100285 C 118.335589 73.100285 118.679372 73.444068 118.679372 73.960456 L 118.679372 80.667795 C 118.679372 81.184183 118.335589 81.527966 117.820628 81.527966 Z M 117.820628 81.527966 " transform="matrix(2.738372,0,0,2.738372,14.5,14.5)"/>
<path style="fill-rule:nonzero;fill:rgb(27.843137%,16.862745%,16.078431%);fill-opacity:1;stroke-width:10;stroke-linecap:butt;stroke-linejoin:round;stroke:rgb(7.45098%,11.764706%,14.509804%);stroke-opacity:1;stroke-miterlimit:10;" d="M 117.820628 69.659601 C 117.30424 69.659601 116.960456 69.315817 116.960456 68.799429 L 116.960456 65.360171 C 116.960456 64.843783 117.30424 64.5 117.820628 64.5 C 118.335589 64.5 118.679372 64.843783 118.679372 65.360171 L 118.679372 68.799429 C 118.679372 69.315817 118.335589 69.659601 117.820628 69.659601 Z M 117.820628 69.659601 " transform="matrix(2.738372,0,0,2.738372,14.5,14.5)"/>
<path style="fill-rule:nonzero;fill:rgb(27.843137%,16.862745%,16.078431%);fill-opacity:1;stroke-width:10;stroke-linecap:butt;stroke-linejoin:round;stroke:rgb(7.45098%,11.764706%,14.509804%);stroke-opacity:1;stroke-miterlimit:10;" d="M 110.080514 118.679372 L 61.919486 118.679372 C 57.103669 118.679372 53.320628 114.896331 53.320628 110.080514 L 53.320628 61.919486 C 53.320628 57.103669 57.103669 53.320628 61.919486 53.320628 L 105.608479 53.320628 C 106.123441 53.320628 106.46865 53.664411 106.46865 54.179372 C 106.46865 54.69576 106.123441 55.039544 105.608479 55.039544 L 61.919486 55.039544 C 58.136445 55.039544 55.039544 58.136445 55.039544 61.919486 L 55.039544 110.080514 C 55.039544 113.863555 58.136445 116.960456 61.919486 116.960456 L 110.080514 116.960456 C 113.863555 116.960456 116.960456 113.863555 116.960456 110.080514 L 116.960456 85.312434 C 116.960456 84.796046 117.30424 84.452262 117.820628 84.452262 C 118.335589 84.452262 118.679372 84.796046 118.679372 85.312434 L 118.679372 110.080514 C 118.679372 114.896331 114.896331 118.679372 110.080514 118.679372 Z M 110.080514 118.679372 " transform="matrix(2.738372,0,0,2.738372,14.5,14.5)"/>
<path style="fill-rule:nonzero;fill:rgb(7.058824%,47.843137%,84.705882%);fill-opacity:1;stroke-width:10;stroke-linecap:butt;stroke-linejoin:round;stroke:rgb(7.45098%,11.764706%,14.509804%);stroke-opacity:1;stroke-miterlimit:10;" d="M 104.059315 88.751692 L 104.059315 100.620057 L 97.008194 100.620057 L 96.835589 88.751692 C 96.835589 85.827395 95.460456 83.592091 92.707338 83.592091 C 90.644639 83.592091 89.440685 84.96865 88.924297 86.343783 C 88.751692 86.860171 88.751692 87.547738 88.751692 88.064126 L 88.751692 100.447452 L 81.527966 100.447452 C 81.527966 100.447452 81.700571 80.324011 81.527966 78.259886 L 88.751692 78.259886 L 88.751692 81.700571 C 89.784468 79.980228 91.503384 78.088708 95.460456 78.088708 C 100.447452 78.259886 104.059315 81.355361 104.059315 88.751692 Z M 104.059315 88.751692 " transform="matrix(2.738372,0,0,2.738372,14.5,14.5)"/>
<path style="fill-rule:nonzero;fill:rgb(27.843137%,16.862745%,16.078431%);fill-opacity:1;stroke-width:10;stroke-linecap:butt;stroke-linejoin:round;stroke:rgb(7.45098%,11.764706%,14.509804%);stroke-opacity:1;stroke-miterlimit:10;" d="M 104.059315 101.480228 L 97.008194 101.480228 C 96.491806 101.480228 96.148023 101.136445 96.148023 100.620057 L 95.975418 88.751692 C 95.975418 87.547738 95.631635 84.452262 92.707338 84.452262 C 90.815817 84.452262 89.955646 86 89.611863 86.687566 C 89.611863 86.860171 89.440685 87.376559 89.440685 88.235304 L 89.440685 100.620057 C 89.440685 101.136445 89.095475 101.480228 88.580514 101.480228 L 81.355361 101.480228 C 81.184183 101.480228 80.840399 101.307623 80.667795 101.307623 C 80.496616 101.136445 80.496616 100.96384 80.496616 100.620057 C 80.496616 100.447452 80.667795 80.496616 80.496616 78.432491 C 80.496616 78.259886 80.496616 77.916103 80.667795 77.743498 C 80.840399 77.57232 81.011578 77.399715 81.355361 77.399715 L 88.580514 77.399715 C 89.095475 77.399715 89.440685 77.743498 89.440685 78.259886 L 89.440685 79.292662 C 90.988422 77.916103 92.879943 77.228536 95.287852 77.228536 C 98.039544 77.228536 100.103669 78.088708 101.824011 79.636445 C 103.715532 81.527966 104.748308 84.623441 104.748308 88.580514 L 104.748308 100.447452 C 104.919486 101.136445 104.575703 101.480228 104.059315 101.480228 Z M 97.868365 99.759886 L 103.200571 99.759886 L 103.200571 88.751692 C 103.200571 85.312434 102.340399 82.73192 100.792662 81.011578 C 99.588708 79.807623 97.69576 79.120057 95.631635 79.120057 C 92.019772 79.120057 90.472034 80.840399 89.611863 82.215532 C 89.26808 82.904525 88.407909 82.904525 88.064126 82.388137 C 87.891521 82.215532 87.891521 81.871749 88.064126 81.700571 L 88.064126 79.292662 L 82.559315 79.292662 C 82.559315 83.075703 82.559315 96.320628 82.559315 99.759886 L 88.064126 99.759886 L 88.064126 88.235304 C 88.064126 87.376559 88.235304 86.687566 88.407909 86.172605 C 89.26808 84.108479 90.988422 82.904525 93.052548 82.904525 C 96.148023 82.904525 98.039544 85.139829 98.039544 88.924297 Z M 97.868365 99.759886 " transform="matrix(2.738372,0,0,2.738372,14.5,14.5)"/>
<path style="fill-rule:nonzero;fill:rgb(7.058824%,47.843137%,84.705882%);fill-opacity:1;stroke-width:10;stroke-linecap:butt;stroke-linejoin:round;stroke:rgb(7.45098%,11.764706%,14.509804%);stroke-opacity:1;stroke-miterlimit:10;" d="M 76.368365 71.896331 C 76.368365 73.787852 75.164411 75.335589 72.92768 75.335589 C 70.863555 75.335589 69.488422 73.787852 69.488422 71.896331 C 69.488422 69.832205 70.863555 68.455646 72.92768 68.455646 C 74.991806 68.455646 76.368365 69.832205 76.368365 71.896331 Z M 76.368365 71.896331 " transform="matrix(2.738372,0,0,2.738372,14.5,14.5)"/>
<path style="fill-rule:nonzero;fill:rgb(27.843137%,16.862745%,16.078431%);fill-opacity:1;stroke-width:10;stroke-linecap:butt;stroke-linejoin:round;stroke:rgb(7.45098%,11.764706%,14.509804%);stroke-opacity:1;stroke-miterlimit:10;" d="M 72.92768 76.024582 C 70.348593 76.024582 68.628251 74.30424 68.628251 71.723726 C 68.628251 69.144639 70.519772 67.424297 72.92768 67.424297 C 75.335589 67.424297 77.228536 69.144639 77.228536 71.552548 C 77.228536 74.30424 75.335589 76.024582 72.92768 76.024582 Z M 72.92768 69.315817 C 71.379943 69.315817 70.348593 70.348593 70.348593 71.896331 C 70.348593 73.444068 71.379943 74.475418 72.92768 74.475418 C 74.475418 74.475418 75.679372 73.444068 75.679372 71.896331 C 75.508194 70.348593 74.475418 69.315817 72.92768 69.315817 Z M 72.92768 69.315817 " transform="matrix(2.738372,0,0,2.738372,14.5,14.5)"/>
<path style="fill-rule:nonzero;fill:rgb(7.058824%,47.843137%,84.705882%);fill-opacity:1;stroke-width:10;stroke-linecap:butt;stroke-linejoin:round;stroke:rgb(7.45098%,11.764706%,14.509804%);stroke-opacity:1;stroke-miterlimit:10;" d="M 69.488422 78.432491 L 76.712148 78.432491 L 76.712148 100.620057 L 69.488422 100.620057 Z M 69.488422 78.432491 " transform="matrix(2.738372,0,0,2.738372,14.5,14.5)"/>
<path style="fill-rule:nonzero;fill:rgb(27.843137%,16.862745%,16.078431%);fill-opacity:1;stroke-width:10;stroke-linecap:butt;stroke-linejoin:round;stroke:rgb(7.45098%,11.764706%,14.509804%);stroke-opacity:1;stroke-miterlimit:10;" d="M 76.712148 101.480228 L 69.488422 101.480228 C 68.972034 101.480228 68.628251 101.136445 68.628251 100.620057 L 68.628251 78.432491 C 68.628251 77.916103 68.972034 77.57232 69.488422 77.57232 L 76.712148 77.57232 C 77.228536 77.57232 77.57232 77.916103 77.57232 78.432491 L 77.57232 100.620057 C 77.57232 101.136445 77.228536 101.480228 76.712148 101.480228 Z M 70.348593 99.759886 L 75.851977 99.759886 L 75.851977 79.292662 L 70.348593 79.292662 Z M 70.348593 99.759886 " transform="matrix(2.738372,0,0,2.738372,14.5,14.5)"/>
<path style=" stroke:none;fill-rule:nonzero;fill:rgb(93.333333%,24.313725%,32.941176%);fill-opacity:1;" d="M 75.730469 141.671875 C 70.527344 141.671875 66.308594 145.886719 66.308594 151.089844 C 66.308594 156.292969 70.527344 160.511719 75.730469 160.511719 C 80.933594 160.511719 85.148438 156.292969 85.148438 151.089844 C 85.148438 145.886719 80.933594 141.671875 75.730469 141.671875 Z M 75.730469 141.671875 "/>
<path style=" stroke:none;fill-rule:nonzero;fill:rgb(94.509804%,73.72549%,9.803922%);fill-opacity:1;" d="M 377.171875 71.019531 C 374.570312 71.019531 372.460938 73.128906 372.460938 75.730469 C 372.460938 78.332031 374.570312 80.441406 377.171875 80.441406 C 379.769531 80.441406 381.878906 78.332031 381.878906 75.730469 C 381.878906 73.128906 379.769531 71.019531 377.171875 71.019531 Z M 377.171875 71.019531 "/>
<path style=" stroke:none;fill-rule:nonzero;fill:rgb(100%,100%,100%);fill-opacity:1;" d="M 250 75.730469 C 153.753906 75.730469 75.730469 153.753906 75.730469 250 C 75.730469 346.246094 153.753906 424.269531 250 424.269531 C 346.246094 424.269531 424.269531 346.246094 424.269531 250 C 424.269531 153.753906 346.246094 75.730469 250 75.730469 Z M 250 75.730469 "/>
<path style=" stroke:none;fill-rule:nonzero;fill:rgb(94.509804%,73.72549%,9.803922%);fill-opacity:1;" d="M 405.429688 66.308594 C 395.023438 66.308594 386.589844 74.746094 386.589844 85.148438 C 386.589844 95.554688 395.023438 103.988281 405.429688 103.988281 C 415.835938 103.988281 424.269531 95.554688 424.269531 85.148438 C 424.269531 74.746094 415.835938 66.308594 405.429688 66.308594 Z M 405.429688 66.308594 "/>
<path style=" stroke:none;fill-rule:nonzero;fill:rgb(93.333333%,24.313725%,32.941176%);fill-opacity:1;" d="M 424.269531 118.121094 C 419.066406 118.121094 414.851562 122.335938 414.851562 127.539062 C 414.851562 132.742188 419.066406 136.960938 424.269531 136.960938 C 429.472656 136.960938 433.691406 132.742188 433.691406 127.539062 C 433.691406 122.335938 429.472656 118.121094 424.269531 118.121094 Z M 424.269531 118.121094 "/>
<path style=" stroke:none;fill-rule:nonzero;fill:rgb(98.431373%,80.392157%,34.901961%);fill-opacity:1;" d="M 396.011719 363.039062 C 390.808594 363.039062 386.589844 367.257812 386.589844 372.460938 C 386.589844 377.664062 390.808594 381.878906 396.011719 381.878906 C 401.210938 381.878906 405.429688 377.664062 405.429688 372.460938 C 405.429688 367.257812 401.210938 363.039062 396.011719 363.039062 Z M 85.148438 292.390625 C 74.746094 292.390625 66.308594 300.824219 66.308594 311.230469 C 66.308594 321.636719 74.746094 330.070312 85.148438 330.070312 C 95.554688 330.070312 103.988281 321.636719 103.988281 311.230469 C 103.988281 300.824219 95.554688 292.390625 85.148438 292.390625 Z M 85.148438 292.390625 "/>
<path style=" stroke:none;fill-rule:nonzero;fill:rgb(93.333333%,24.313725%,32.941176%);fill-opacity:1;" d="M 132.25 414.851562 C 127.046875 414.851562 122.828125 419.066406 122.828125 424.269531 C 122.828125 429.472656 127.046875 433.691406 132.25 433.691406 C 137.453125 433.691406 141.671875 429.472656 141.671875 424.269531 C 141.671875 419.066406 137.453125 414.851562 132.25 414.851562 Z M 132.25 414.851562 "/>
<path style=" stroke:none;fill-rule:nonzero;fill:rgb(20%,20%,20%);fill-opacity:1;" d="M 101.636719 254.710938 C 95.132812 254.710938 89.859375 259.980469 89.859375 266.484375 C 89.859375 272.988281 95.132812 278.261719 101.636719 278.261719 C 108.136719 278.261719 113.410156 272.988281 113.410156 266.484375 C 113.410156 259.980469 108.136719 254.710938 101.636719 254.710938 Z M 101.636719 254.710938 "/>
<path style=" stroke:none;fill-rule:nonzero;fill:rgb(94.509804%,73.72549%,9.803922%);fill-opacity:1;" d="M 113.410156 325.359375 C 110.808594 325.359375 108.699219 327.46875 108.699219 330.070312 C 108.699219 332.671875 110.808594 334.78125 113.410156 334.78125 C 116.011719 334.78125 118.121094 332.671875 118.121094 330.070312 C 118.121094 327.46875 116.011719 325.359375 113.410156 325.359375 Z M 113.410156 325.359375 "/>
<path style=" stroke:none;fill-rule:nonzero;fill:rgb(20%,20%,20%);fill-opacity:1;" d="M 391.300781 169.929688 C 388.699219 169.929688 386.589844 172.039062 386.589844 174.640625 C 386.589844 177.242188 388.699219 179.351562 391.300781 179.351562 C 393.902344 179.351562 396.011719 177.242188 396.011719 174.640625 C 396.011719 172.039062 393.902344 169.929688 391.300781 169.929688 Z M 391.300781 169.929688 "/>
<path style=" stroke:none;fill-rule:nonzero;fill:rgb(7.058824%,47.843137%,84.705882%);fill-opacity:1;" d="M 179.351562 355.03125 C 160.511719 355.03125 144.96875 339.488281 144.96875 320.648438 L 144.96875 179.351562 C 144.96875 160.511719 160.511719 144.96875 179.351562 144.96875 L 320.648438 144.96875 C 339.488281 144.96875 355.03125 160.511719 355.03125 179.351562 L 355.03125 320.648438 C 355.03125 339.488281 339.488281 355.03125 320.648438 355.03125 Z M 179.351562 355.03125 "/>
<path style=" stroke:none;fill-rule:nonzero;fill:rgb(27.843137%,16.862745%,16.078431%);fill-opacity:1;" d="M 320.648438 148.265625 C 337.605469 148.265625 351.734375 162.394531 351.734375 179.351562 L 351.734375 320.648438 C 351.734375 337.605469 337.605469 351.734375 320.648438 351.734375 L 179.351562 351.734375 C 162.394531 351.734375 148.265625 337.605469 148.265625 320.648438 L 148.265625 179.351562 C 148.265625 162.394531 162.394531 148.265625 179.351562 148.265625 L 320.648438 148.265625 M 320.648438 141.671875 L 179.351562 141.671875 C 158.625 141.671875 141.671875 158.625 141.671875 179.351562 L 141.671875 320.648438 C 141.671875 341.375 158.625 358.328125 179.351562 358.328125 L 320.648438 358.328125 C 341.375 358.328125 358.328125 341.375 358.328125 320.648438 L 358.328125 179.351562 C 358.328125 158.625 341.375 141.671875 320.648438 141.671875 Z M 320.648438 141.671875 "/>
<path style=" stroke:none;fill-rule:nonzero;fill:rgb(99.215686%,98.823529%,93.333333%);fill-opacity:1;" d="M 314.054688 337.136719 L 186.414062 337.136719 C 173.699219 337.136719 163.808594 326.773438 163.808594 314.527344 L 163.808594 185.472656 C 163.808594 172.757812 174.167969 162.863281 186.414062 162.863281 L 314.054688 162.863281 C 326.773438 162.863281 336.664062 173.226562 336.664062 185.472656 L 336.664062 314.054688 C 336.664062 326.773438 326.773438 337.136719 314.054688 337.136719 Z M 314.054688 337.136719 "/>
<path style=" stroke:none;fill-rule:nonzero;fill:rgb(27.843137%,16.862745%,16.078431%);fill-opacity:1;" d="M 337.136719 237.753906 C 335.722656 237.753906 334.78125 236.8125 334.78125 235.398438 L 334.78125 217.03125 C 334.78125 215.617188 335.722656 214.675781 337.136719 214.675781 C 338.546875 214.675781 339.488281 215.617188 339.488281 217.03125 L 339.488281 235.398438 C 339.488281 236.8125 338.546875 237.753906 337.136719 237.753906 Z M 337.136719 237.753906 "/>
<path style=" stroke:none;fill-rule:nonzero;fill:rgb(27.843137%,16.862745%,16.078431%);fill-opacity:1;" d="M 337.136719 205.253906 C 335.722656 205.253906 334.78125 204.3125 334.78125 202.898438 L 334.78125 193.480469 C 334.78125 192.066406 335.722656 191.125 337.136719 191.125 C 338.546875 191.125 339.488281 192.066406 339.488281 193.480469 L 339.488281 202.898438 C 339.488281 204.3125 338.546875 205.253906 337.136719 205.253906 Z M 337.136719 205.253906 "/>
<path style=" stroke:none;fill-rule:nonzero;fill:rgb(27.843137%,16.862745%,16.078431%);fill-opacity:1;" d="M 315.941406 339.488281 L 184.058594 339.488281 C 170.871094 339.488281 160.511719 329.128906 160.511719 315.941406 L 160.511719 184.058594 C 160.511719 170.871094 170.871094 160.511719 184.058594 160.511719 L 303.695312 160.511719 C 305.105469 160.511719 306.050781 161.453125 306.050781 162.863281 C 306.050781 164.277344 305.105469 165.21875 303.695312 165.21875 L 184.058594 165.21875 C 173.699219 165.21875 165.21875 173.699219 165.21875 184.058594 L 165.21875 315.941406 C 165.21875 326.300781 173.699219 334.78125 184.058594 334.78125 L 315.941406 334.78125 C 326.300781 334.78125 334.78125 326.300781 334.78125 315.941406 L 334.78125 248.117188 C 334.78125 246.703125 335.722656 245.761719 337.136719 245.761719 C 338.546875 245.761719 339.488281 246.703125 339.488281 248.117188 L 339.488281 315.941406 C 339.488281 329.128906 329.128906 339.488281 315.941406 339.488281 Z M 315.941406 339.488281 "/>
<path style=" stroke:none;fill-rule:nonzero;fill:rgb(7.058824%,47.843137%,84.705882%);fill-opacity:1;" d="M 299.453125 257.535156 L 299.453125 290.035156 L 280.144531 290.035156 L 279.671875 257.535156 C 279.671875 249.527344 275.90625 243.40625 268.367188 243.40625 C 262.71875 243.40625 259.421875 247.175781 258.007812 250.941406 C 257.535156 252.355469 257.535156 254.238281 257.535156 255.652344 L 257.535156 289.5625 L 237.753906 289.5625 C 237.753906 289.5625 238.226562 234.457031 237.753906 228.804688 L 257.535156 228.804688 L 257.535156 238.226562 C 260.363281 233.515625 265.070312 228.335938 275.90625 228.335938 C 289.5625 228.804688 299.453125 237.28125 299.453125 257.535156 Z M 299.453125 257.535156 "/>
<path style=" stroke:none;fill-rule:nonzero;fill:rgb(27.843137%,16.862745%,16.078431%);fill-opacity:1;" d="M 299.453125 292.390625 L 280.144531 292.390625 C 278.730469 292.390625 277.789062 291.449219 277.789062 290.035156 L 277.316406 257.535156 C 277.316406 254.238281 276.375 245.761719 268.367188 245.761719 C 263.1875 245.761719 260.832031 250 259.890625 251.882812 C 259.890625 252.355469 259.421875 253.769531 259.421875 256.121094 L 259.421875 290.035156 C 259.421875 291.449219 258.476562 292.390625 257.066406 292.390625 L 237.28125 292.390625 C 236.8125 292.390625 235.871094 291.917969 235.398438 291.917969 C 234.929688 291.449219 234.929688 290.976562 234.929688 290.035156 C 234.929688 289.5625 235.398438 234.929688 234.929688 229.277344 C 234.929688 228.804688 234.929688 227.863281 235.398438 227.390625 C 235.871094 226.921875 236.339844 226.449219 237.28125 226.449219 L 257.066406 226.449219 C 258.476562 226.449219 259.421875 227.390625 259.421875 228.804688 L 259.421875 231.632812 C 263.660156 227.863281 268.839844 225.980469 275.433594 225.980469 C 282.96875 225.980469 288.621094 228.335938 293.332031 232.574219 C 298.511719 237.753906 301.339844 246.230469 301.339844 257.066406 L 301.339844 289.5625 C 301.808594 291.449219 300.867188 292.390625 299.453125 292.390625 Z M 282.5 287.679688 L 297.101562 287.679688 L 297.101562 257.535156 C 297.101562 248.117188 294.746094 241.050781 290.507812 236.339844 C 287.210938 233.042969 282.027344 231.160156 276.375 231.160156 C 266.484375 231.160156 262.246094 235.871094 259.890625 239.636719 C 258.949219 241.523438 256.59375 241.523438 255.652344 240.109375 C 255.179688 239.636719 255.179688 238.695312 255.652344 238.226562 L 255.652344 231.632812 L 240.578125 231.632812 C 240.578125 241.992188 240.578125 278.261719 240.578125 287.679688 L 255.652344 287.679688 L 255.652344 256.121094 C 255.652344 253.769531 256.121094 251.882812 256.59375 250.472656 C 258.949219 244.820312 263.660156 241.523438 269.3125 241.523438 C 277.789062 241.523438 282.96875 247.644531 282.96875 258.007812 Z M 282.5 287.679688 "/>
<path style=" stroke:none;fill-rule:nonzero;fill:rgb(7.058824%,47.843137%,84.705882%);fill-opacity:1;" d="M 214.203125 201.957031 C 208.550781 201.957031 204.785156 205.726562 204.785156 211.378906 C 204.785156 216.558594 208.550781 220.796875 214.203125 220.796875 C 220.328125 220.796875 223.625 216.558594 223.625 211.378906 C 223.625 205.726562 219.855469 201.957031 214.203125 201.957031 Z M 214.203125 201.957031 "/>
<path style=" stroke:none;fill-rule:nonzero;fill:rgb(27.843137%,16.862745%,16.078431%);fill-opacity:1;" d="M 214.203125 222.683594 C 207.140625 222.683594 202.429688 217.972656 202.429688 210.90625 C 202.429688 203.84375 207.609375 199.132812 214.203125 199.132812 C 220.796875 199.132812 225.980469 203.84375 225.980469 210.4375 C 225.980469 217.972656 220.796875 222.683594 214.203125 222.683594 Z M 214.203125 204.3125 C 209.964844 204.3125 207.140625 207.140625 207.140625 211.378906 C 207.140625 215.617188 209.964844 218.441406 214.203125 218.441406 C 218.441406 218.441406 221.738281 215.617188 221.738281 211.378906 C 221.269531 207.140625 218.441406 204.3125 214.203125 204.3125 Z M 214.203125 204.3125 "/>
<path style=" stroke:none;fill-rule:nonzero;fill:rgb(7.058824%,47.843137%,84.705882%);fill-opacity:1;" d="M 204.785156 229.277344 L 224.566406 229.277344 L 224.566406 290.035156 L 204.785156 290.035156 Z M 204.785156 229.277344 "/>
<path style=" stroke:none;fill-rule:nonzero;fill:rgb(27.843137%,16.862745%,16.078431%);fill-opacity:1;" d="M 224.566406 292.390625 L 204.785156 292.390625 C 203.371094 292.390625 202.429688 291.449219 202.429688 290.035156 L 202.429688 229.277344 C 202.429688 227.863281 203.371094 226.921875 204.785156 226.921875 L 224.566406 226.921875 C 225.980469 226.921875 226.921875 227.863281 226.921875 229.277344 L 226.921875 290.035156 C 226.921875 291.449219 225.980469 292.390625 224.566406 292.390625 Z M 207.140625 287.679688 L 222.210938 287.679688 L 222.210938 231.632812 L 207.140625 231.632812 Z M 207.140625 287.679688 "/>
</g>
</svg>
