<?xml version="1.0" encoding="UTF-8"?>
<svg xmlns="http://www.w3.org/2000/svg" xmlns:xlink="http://www.w3.org/1999/xlink" width="500pt" height="500pt" viewBox="0 0 500 500" version="1.1">
<g id="surface1077621">
<path style="fill-rule:nonzero;fill:rgb(94.509804%,73.72549%,9.803922%);fill-opacity:1;stroke-width:10;stroke-linecap:butt;stroke-linejoin:round;stroke:rgb(7.45098%,11.764706%,14.509804%);stroke-opacity:1;stroke-miterlimit:10;" d="M 132.439716 24.079431 C 132.439716 23.129563 133.210417 22.360284 134.160284 22.360284 C 135.110152 22.360284 135.879431 23.129563 135.879431 24.079431 C 135.879431 25.029299 135.110152 25.8 134.160284 25.8 C 133.210417 25.8 132.439716 25.029299 132.439716 24.079431 Z M 132.439716 24.079431 " transform="matrix(2.747093,0,0,2.747093,13.75,13.75)"/>
<path style="fill-rule:nonzero;fill:rgb(97.647059%,85.882353%,82.352941%);fill-opacity:1;stroke-width:10;stroke-linecap:butt;stroke-linejoin:round;stroke:rgb(7.45098%,11.764706%,14.509804%);stroke-opacity:1;stroke-miterlimit:10;" d="M 20.639716 86 C 20.639716 49.902183 49.902183 20.639716 86 20.639716 C 122.097817 20.639716 151.360284 49.902183 151.360284 86 C 151.360284 122.097817 122.097817 151.360284 86 151.360284 C 49.902183 151.360284 20.639716 122.097817 20.639716 86 Z M 20.639716 86 " transform="matrix(2.747093,0,0,2.747093,13.75,13.75)"/>
<path style="fill-rule:nonzero;fill:rgb(94.509804%,73.72549%,9.803922%);fill-opacity:1;stroke-width:10;stroke-linecap:butt;stroke-linejoin:round;stroke:rgb(7.45098%,11.764706%,14.509804%);stroke-opacity:1;stroke-miterlimit:10;" d="M 137.6 27.520569 C 137.6 23.719676 140.67996 20.639716 144.479431 20.639716 C 148.280324 20.639716 151.360284 23.719676 151.360284 27.520569 C 151.360284 31.32004 148.280324 34.4 144.479431 34.4 C 140.67996 34.4 137.6 31.32004 137.6 27.520569 Z M 137.6 27.520569 " transform="matrix(2.747093,0,0,2.747093,13.75,13.75)"/>
<path style="fill-rule:nonzero;fill:rgb(93.333333%,24.313725%,32.941176%);fill-opacity:1;stroke-width:10;stroke-linecap:butt;stroke-linejoin:round;stroke:rgb(7.45098%,11.764706%,14.509804%);stroke-opacity:1;stroke-miterlimit:10;" d="M 20.639716 44.720569 C 20.639716 42.820833 22.179696 41.279431 24.079431 41.279431 C 25.979167 41.279431 27.520569 42.820833 27.520569 44.720569 C 27.520569 46.620304 25.979167 48.160284 24.079431 48.160284 C 22.179696 48.160284 20.639716 46.620304 20.639716 44.720569 Z M 20.639716 44.720569 " transform="matrix(2.747093,0,0,2.747093,13.75,13.75)"/>
<path style="fill-rule:nonzero;fill:rgb(98.431373%,80.392157%,34.901961%);fill-opacity:1;stroke-width:10;stroke-linecap:butt;stroke-linejoin:round;stroke:rgb(7.45098%,11.764706%,14.509804%);stroke-opacity:1;stroke-miterlimit:10;" d="M 130.720569 132.439716 C 130.720569 130.53998 132.260549 129 134.160284 129 C 136.06002 129 137.6 130.53998 137.6 132.439716 C 137.6 134.339451 136.06002 135.879431 134.160284 135.879431 C 132.260549 135.879431 130.720569 134.339451 130.720569 132.439716 Z M 130.720569 132.439716 " transform="matrix(2.747093,0,0,2.747093,13.75,13.75)"/>
<path style="fill-rule:nonzero;fill:rgb(98.431373%,80.392157%,34.901961%);fill-opacity:1;stroke-width:10;stroke-linecap:butt;stroke-linejoin:round;stroke:rgb(7.45098%,11.764706%,14.509804%);stroke-opacity:1;stroke-miterlimit:10;" d="M 22.360284 134.160284 C 22.360284 130.360813 25.440245 127.279431 29.239716 127.279431 C 33.039187 127.279431 36.120569 130.360813 36.120569 134.160284 C 36.120569 137.959755 33.039187 141.039716 29.239716 141.039716 C 25.440245 141.039716 22.360284 137.959755 22.360284 134.160284 Z M 22.360284 134.160284 " transform="matrix(2.747093,0,0,2.747093,13.75,13.75)"/>
<path style="fill-rule:nonzero;fill:rgb(93.333333%,24.313725%,32.941176%);fill-opacity:1;stroke-width:10;stroke-linecap:butt;stroke-linejoin:round;stroke:rgb(7.45098%,11.764706%,14.509804%);stroke-opacity:1;stroke-miterlimit:10;" d="M 37.839716 142.760284 C 37.839716 140.860549 39.379696 139.320569 41.279431 139.320569 C 43.179167 139.320569 44.720569 140.860549 44.720569 142.760284 C 44.720569 144.66002 43.179167 146.2 41.279431 146.2 C 39.379696 146.2 37.839716 144.66002 37.839716 142.760284 Z M 37.839716 142.760284 " transform="matrix(2.747093,0,0,2.747093,13.75,13.75)"/>
<path style="fill-rule:nonzero;fill:rgb(100%,100%,100%);fill-opacity:1;stroke-width:10;stroke-linecap:butt;stroke-linejoin:round;stroke:rgb(7.45098%,11.764706%,14.509804%);stroke-opacity:1;stroke-miterlimit:10;" d="M 110.079431 135.049008 C 110.079431 132.68998 111.991964 130.778869 114.350992 130.778869 C 116.71002 130.778869 118.621131 132.68998 118.621131 135.049008 C 118.621131 137.408036 116.71002 139.320569 114.350992 139.320569 C 111.991964 139.320569 110.079431 137.408036 110.079431 135.049008 Z M 110.079431 135.049008 " transform="matrix(2.747093,0,0,2.747093,13.75,13.75)"/>
<path style="fill-rule:nonzero;fill:rgb(100%,100%,100%);fill-opacity:1;stroke-width:10;stroke-linecap:butt;stroke-linejoin:round;stroke:rgb(7.45098%,11.764706%,14.509804%);stroke-opacity:1;stroke-miterlimit:10;" d="M 25.8 82.560284 C 25.8 81.610417 26.570701 80.839716 27.520569 80.839716 C 28.470437 80.839716 29.239716 81.610417 29.239716 82.560284 C 29.239716 83.510152 28.470437 84.279431 27.520569 84.279431 C 26.570701 84.279431 25.8 83.510152 25.8 82.560284 Z M 25.8 82.560284 " transform="matrix(2.747093,0,0,2.747093,13.75,13.75)"/>
<path style="fill-rule:nonzero;fill:rgb(94.509804%,73.72549%,9.803922%);fill-opacity:1;stroke-width:10;stroke-linecap:butt;stroke-linejoin:round;stroke:rgb(7.45098%,11.764706%,14.509804%);stroke-opacity:1;stroke-miterlimit:10;" d="M 146.2 53.320569 C 146.2 52.370701 146.970701 51.6 147.920569 51.6 C 148.870437 51.6 149.639716 52.370701 149.639716 53.320569 C 149.639716 54.270437 148.870437 55.039716 147.920569 55.039716 C 146.970701 55.039716 146.2 54.270437 146.2 53.320569 Z M 146.2 53.320569 " transform="matrix(2.747093,0,0,2.747093,13.75,13.75)"/>
<path style="fill-rule:nonzero;fill:rgb(100%,100%,100%);fill-opacity:1;stroke-width:10;stroke-linecap:butt;stroke-linejoin:round;stroke:rgb(7.45098%,11.764706%,14.509804%);stroke-opacity:1;stroke-miterlimit:10;" d="M 134.160284 113.520569 C 134.160284 111.620833 135.700265 110.079431 137.6 110.079431 C 139.499735 110.079431 141.039716 111.620833 141.039716 113.520569 C 141.039716 115.420304 139.499735 116.960284 137.6 116.960284 C 135.700265 116.960284 134.160284 115.420304 134.160284 113.520569 Z M 134.160284 113.520569 " transform="matrix(2.747093,0,0,2.747093,13.75,13.75)"/>
<path style="fill-rule:nonzero;fill:rgb(100%,100%,100%);fill-opacity:1;stroke-width:10;stroke-linecap:butt;stroke-linejoin:round;stroke:rgb(7.45098%,11.764706%,14.509804%);stroke-opacity:1;stroke-miterlimit:10;" d="M 139.320569 58.479431 C 139.320569 59.429299 138.549868 60.2 137.6 60.2 C 136.650132 60.2 135.879431 59.429299 135.879431 58.479431 C 135.879431 57.530985 136.650132 56.760284 137.6 56.760284 C 138.549868 56.760284 139.320569 57.530985 139.320569 58.479431 Z M 139.320569 58.479431 " transform="matrix(2.747093,0,0,2.747093,13.75,13.75)"/>
<path style="fill-rule:nonzero;fill:rgb(0%,64.705882%,64.705882%);fill-opacity:1;stroke-width:10;stroke-linecap:butt;stroke-linejoin:round;stroke:rgb(7.45098%,11.764706%,14.509804%);stroke-opacity:1;stroke-miterlimit:10;" d="M 60.2 124.355886 C 53.320569 124.355886 47.644114 118.679431 47.644114 111.8 L 47.644114 60.2 C 47.644114 53.320569 53.320569 47.644114 60.2 47.644114 L 111.8 47.644114 C 118.679431 47.644114 124.355886 53.320569 124.355886 60.2 L 124.355886 111.8 C 124.355886 118.679431 118.679431 124.355886 111.8 124.355886 Z M 60.2 124.355886 " transform="matrix(2.747093,0,0,2.747093,13.75,13.75)"/>
<path style="fill-rule:nonzero;fill:rgb(27.843137%,16.862745%,16.078431%);fill-opacity:1;stroke-width:10;stroke-linecap:butt;stroke-linejoin:round;stroke:rgb(7.45098%,11.764706%,14.509804%);stroke-opacity:1;stroke-miterlimit:10;" d="M 111.8 48.848512 L 60.2 48.848512 C 54.007374 48.848512 48.848512 54.007374 48.848512 60.2 L 48.848512 111.8 C 48.848512 117.992626 54.007374 123.151488 60.2 123.151488 L 111.8 123.151488 C 117.992626 123.151488 123.151488 117.992626 123.151488 111.8 L 123.151488 60.2 C 123.151488 54.007374 117.992626 48.848512 111.8 48.848512 M 111.8 46.439716 C 119.367659 46.439716 125.560284 52.632341 125.560284 60.2 L 125.560284 111.8 C 125.560284 119.367659 119.367659 125.560284 111.8 125.560284 L 60.2 125.560284 C 52.632341 125.560284 46.439716 119.367659 46.439716 111.8 L 46.439716 60.2 C 46.439716 52.632341 52.632341 46.439716 60.2 46.439716 Z M 111.8 46.439716 " transform="matrix(2.747093,0,0,2.747093,13.75,13.75)"/>
<path style="fill-rule:nonzero;fill:rgb(99.215686%,98.823529%,93.333333%);fill-opacity:1;stroke-width:10;stroke-linecap:butt;stroke-linejoin:round;stroke:rgb(7.45098%,11.764706%,14.509804%);stroke-opacity:1;stroke-miterlimit:10;" d="M 118.356647 82.925728 L 118.356647 110.618353 C 118.356647 114.918353 114.916931 118.358069 110.616931 118.358069 L 62.456647 118.358069 C 58.156647 118.358069 54.716931 114.918353 54.716931 110.618353 L 54.716931 62.458069 C 54.716931 58.158069 58.156647 54.718353 62.456647 54.718353 L 110.616931 54.718353 C 114.916931 54.718353 118.356647 58.158069 118.356647 62.458069 L 118.356647 82.925728 " transform="matrix(2.747093,0,0,2.747093,13.75,13.75)"/>
<path style="fill-rule:nonzero;fill:rgb(27.843137%,16.862745%,16.078431%);fill-opacity:1;stroke-width:10;stroke-linecap:butt;stroke-linejoin:round;stroke:rgb(7.45098%,11.764706%,14.509804%);stroke-opacity:1;stroke-miterlimit:10;" d="M 117.820569 81.527943 C 117.304398 81.527943 116.960284 81.183829 116.960284 80.667659 L 116.960284 73.960284 C 116.960284 73.444114 117.304398 73.1 117.820569 73.1 C 118.335317 73.1 118.679431 73.444114 118.679431 73.960284 L 118.679431 80.667659 C 118.679431 81.183829 118.335317 81.527943 117.820569 81.527943 Z M 117.820569 69.660284 C 117.304398 69.660284 116.960284 69.316171 116.960284 68.8 L 116.960284 65.360284 C 116.960284 64.844114 117.304398 64.5 117.820569 64.5 C 118.335317 64.5 118.679431 64.844114 118.679431 65.360284 L 118.679431 68.8 C 118.679431 69.316171 118.335317 69.660284 117.820569 69.660284 Z M 117.820569 69.660284 " transform="matrix(2.747093,0,0,2.747093,13.75,13.75)"/>
<path style="fill-rule:nonzero;fill:rgb(27.843137%,16.862745%,16.078431%);fill-opacity:1;stroke-width:10;stroke-linecap:butt;stroke-linejoin:round;stroke:rgb(7.45098%,11.764706%,14.509804%);stroke-opacity:1;stroke-miterlimit:10;" d="M 110.079431 118.679431 L 61.920569 118.679431 C 57.104398 118.679431 53.320569 114.895602 53.320569 110.079431 L 53.320569 61.920569 C 53.320569 57.104398 57.104398 53.320569 61.920569 53.320569 L 105.607374 53.320569 C 106.123545 53.320569 106.467659 53.664683 106.467659 54.179431 C 106.467659 54.695602 106.123545 55.039716 105.607374 55.039716 L 61.920569 55.039716 C 58.135317 55.039716 55.039716 58.135317 55.039716 61.920569 L 55.039716 110.079431 C 55.039716 113.864683 58.135317 116.960284 61.920569 116.960284 L 110.079431 116.960284 C 113.864683 116.960284 116.960284 113.864683 116.960284 110.079431 L 116.960284 85.311772 C 116.960284 84.795602 117.304398 84.451488 117.820569 84.451488 C 118.335317 84.451488 118.679431 84.795602 118.679431 85.311772 L 118.679431 110.079431 C 118.679431 114.895602 114.895602 118.679431 110.079431 118.679431 Z M 110.079431 118.679431 " transform="matrix(2.747093,0,0,2.747093,13.75,13.75)"/>
<path style="fill-rule:nonzero;fill:rgb(0%,64.705882%,64.705882%);fill-opacity:1;stroke-width:10;stroke-linecap:butt;stroke-linejoin:round;stroke:rgb(7.45098%,11.764706%,14.509804%);stroke-opacity:1;stroke-miterlimit:10;" d="M 103.682044 74.706812 L 103.682044 101.770933 L 107.690542 105.779431 L 91.652282 105.779431 L 95.66078 101.770933 L 95.66078 80.720271 L 85.637401 105.779431 L 80.625 105.779431 L 71.604101 80.720271 L 71.604101 99.76455 L 75.612599 105.779431 L 63.584259 105.779431 L 67.59418 99.767394 L 67.59418 75.709292 L 63.291336 71.406448 C 62.659987 70.775099 63.106481 69.694411 63.999471 69.694411 L 75.612599 69.694411 L 86.149306 92.523942 L 95.66078 69.695833 L 106.925529 69.695833 C 107.862599 69.695833 108.287765 70.867526 107.566832 71.467593 L 103.6792 74.706812 Z M 103.682044 74.706812 " transform="matrix(2.747093,0,0,2.747093,13.75,13.75)"/>
<path style="fill-rule:nonzero;fill:rgb(27.843137%,16.862745%,16.078431%);fill-opacity:1;stroke-width:10;stroke-linecap:butt;stroke-linejoin:round;stroke:rgb(7.45098%,11.764706%,14.509804%);stroke-opacity:1;stroke-miterlimit:10;" d="M 107.68912 106.639716 L 91.65086 106.639716 C 91.30248 106.639716 90.988228 106.430688 90.855985 106.107903 C 90.720899 105.786541 90.794841 105.416832 91.04084 105.170833 L 94.799074 101.412599 L 94.799074 85.182374 L 86.435119 106.096528 C 86.304299 106.425 85.990046 106.639716 85.637401 106.639716 L 80.625 106.639716 C 80.262401 106.639716 79.938194 106.413624 79.815906 106.070933 L 72.462963 85.647354 L 72.462963 99.505754 L 76.327844 105.303075 C 76.504167 105.566138 76.52123 105.907407 76.371925 106.186111 C 76.221197 106.464815 75.931118 106.639716 75.612599 106.639716 L 63.584259 106.639716 C 63.267163 106.639716 62.975661 106.464815 62.826356 106.186111 C 62.67705 105.907407 62.694114 105.566138 62.869015 105.303075 L 66.733896 99.505754 L 66.733896 76.064782 L 62.68416 72.015046 C 62.148082 71.48039 61.990245 70.684094 62.278902 69.984491 C 62.568981 69.28631 63.244411 68.835549 63.999471 68.835549 L 75.612599 68.835549 C 75.948181 68.835549 76.25248 69.030357 76.393254 69.336078 L 86.108069 90.385317 L 94.865906 69.365939 C 95.000992 69.045999 95.313823 68.835549 95.659358 68.835549 L 106.924107 68.835549 C 107.716138 68.835549 108.404365 69.317593 108.674537 70.06412 C 108.944709 70.810648 108.725728 71.621164 108.115708 72.130225 L 104.53664 75.110648 L 104.53664 101.416865 L 108.294874 105.175099 C 108.540873 105.421098 108.614815 105.790807 108.479729 106.112169 C 108.351753 106.430688 108.038922 106.639716 107.68912 106.639716 Z M 93.72834 104.920569 L 105.613062 104.920569 L 103.070602 102.378108 C 102.909921 102.216005 102.820337 101.997024 102.820337 101.769511 L 102.820337 74.706812 C 102.820337 74.452282 102.934094 74.209127 103.128902 74.045602 L 107.017956 70.807804 L 106.926951 70.556118 L 96.233829 70.556118 L 86.942758 92.855258 C 86.811938 93.170933 86.507639 93.378538 86.164947 93.385648 C 85.820833 93.362897 85.510847 93.195106 85.368651 92.885119 L 75.062302 70.554696 L 63.999471 70.554696 L 63.898512 70.799272 L 68.201356 75.102116 C 68.363459 75.26422 68.453042 75.481779 68.453042 75.710714 L 68.453042 99.768816 C 68.453042 99.939451 68.403274 100.104398 68.308003 100.245172 L 65.191071 104.920569 L 74.005787 104.920569 L 70.887434 100.24375 C 70.793585 100.102976 70.743816 99.935185 70.743816 99.767394 L 70.743816 80.720271 C 70.743816 80.302216 71.045271 79.943882 71.456217 79.871362 C 71.855787 79.801687 72.270999 80.033466 72.411772 80.427348 L 81.230754 104.920569 L 85.05582 104.920569 L 94.863062 80.401753 C 95.016634 80.017824 95.414782 79.801687 95.824306 79.875628 C 96.228142 79.952414 96.521065 80.306481 96.521065 80.720271 L 96.521065 101.770933 C 96.521065 101.999868 96.43006 102.217427 96.2708 102.37953 Z M 93.72834 104.920569 " transform="matrix(2.747093,0,0,2.747093,13.75,13.75)"/>
<path style=" stroke:none;fill-rule:nonzero;fill:rgb(80%,80%,80%);fill-opacity:1;" d="M 387.023438 79.898438 C 387.023438 82.507812 384.910156 84.625 382.300781 84.625 C 379.691406 84.625 377.574219 82.507812 377.574219 79.898438 C 377.574219 77.289062 379.691406 75.175781 382.300781 75.175781 C 384.910156 75.175781 387.023438 77.289062 387.023438 79.898438 Z M 387.023438 79.898438 "/>
<path style=" stroke:none;fill-rule:nonzero;fill:rgb(100%,100%,100%);fill-opacity:1;" d="M 429.550781 250 C 429.550781 349.164062 349.164062 429.550781 250 429.550781 C 150.835938 429.550781 70.449219 349.164062 70.449219 250 C 70.449219 150.835938 150.835938 70.449219 250 70.449219 C 349.164062 70.449219 429.550781 150.835938 429.550781 250 Z M 429.550781 250 "/>
<path style=" stroke:none;fill-rule:nonzero;fill:rgb(80%,80%,80%);fill-opacity:1;" d="M 429.550781 89.351562 C 429.550781 99.789062 421.089844 108.25 410.648438 108.25 C 400.210938 108.25 391.75 99.789062 391.75 89.351562 C 391.75 78.910156 400.210938 70.449219 410.648438 70.449219 C 421.089844 70.449219 429.550781 78.910156 429.550781 89.351562 Z M 429.550781 89.351562 "/>
<path style=" stroke:none;fill-rule:nonzero;fill:rgb(93.333333%,24.313725%,32.941176%);fill-opacity:1;" d="M 89.351562 136.601562 C 89.351562 141.820312 85.117188 146.050781 79.898438 146.050781 C 74.679688 146.050781 70.449219 141.820312 70.449219 136.601562 C 70.449219 131.382812 74.679688 127.148438 79.898438 127.148438 C 85.117188 127.148438 89.351562 131.382812 89.351562 136.601562 Z M 89.351562 136.601562 "/>
<path style=" stroke:none;fill-rule:nonzero;fill:rgb(98.431373%,80.392157%,34.901961%);fill-opacity:1;" d="M 391.75 377.574219 C 391.75 382.792969 387.519531 387.023438 382.300781 387.023438 C 377.082031 387.023438 372.851562 382.792969 372.851562 377.574219 C 372.851562 372.355469 377.082031 368.125 382.300781 368.125 C 387.519531 368.125 391.75 372.355469 391.75 377.574219 Z M 391.75 377.574219 "/>
<path style=" stroke:none;fill-rule:nonzero;fill:rgb(98.431373%,80.392157%,34.901961%);fill-opacity:1;" d="M 112.976562 382.300781 C 112.976562 392.738281 104.511719 401.199219 94.074219 401.199219 C 83.636719 401.199219 75.175781 392.738281 75.175781 382.300781 C 75.175781 371.863281 83.636719 363.398438 94.074219 363.398438 C 104.511719 363.398438 112.976562 371.863281 112.976562 382.300781 Z M 112.976562 382.300781 "/>
<path style=" stroke:none;fill-rule:nonzero;fill:rgb(93.333333%,24.313725%,32.941176%);fill-opacity:1;" d="M 136.601562 405.925781 C 136.601562 411.144531 132.367188 415.375 127.148438 415.375 C 121.929688 415.375 117.699219 411.144531 117.699219 405.925781 C 117.699219 400.707031 121.929688 396.476562 127.148438 396.476562 C 132.367188 396.476562 136.601562 400.707031 136.601562 405.925781 Z M 136.601562 405.925781 "/>
<path style=" stroke:none;fill-rule:nonzero;fill:rgb(0%,0%,0%);fill-opacity:1;" d="M 339.613281 384.742188 C 339.613281 391.222656 334.363281 396.476562 327.882812 396.476562 C 321.402344 396.476562 316.148438 391.222656 316.148438 384.742188 C 316.148438 378.261719 321.402344 373.011719 327.882812 373.011719 C 334.363281 373.011719 339.613281 378.261719 339.613281 384.742188 Z M 339.613281 384.742188 "/>
<path style=" stroke:none;fill-rule:nonzero;fill:rgb(0%,0%,0%);fill-opacity:1;" d="M 94.074219 240.550781 C 94.074219 243.160156 91.960938 245.273438 89.351562 245.273438 C 86.742188 245.273438 84.625 243.160156 84.625 240.550781 C 84.625 237.941406 86.742188 235.824219 89.351562 235.824219 C 91.960938 235.824219 94.074219 237.941406 94.074219 240.550781 Z M 94.074219 240.550781 "/>
<path style=" stroke:none;fill-rule:nonzero;fill:rgb(80%,80%,80%);fill-opacity:1;" d="M 424.824219 160.226562 C 424.824219 162.835938 422.710938 164.949219 420.101562 164.949219 C 417.492188 164.949219 415.375 162.835938 415.375 160.226562 C 415.375 157.617188 417.492188 155.5 420.101562 155.5 C 422.710938 155.5 424.824219 157.617188 424.824219 160.226562 Z M 424.824219 160.226562 "/>
<path style=" stroke:none;fill-rule:nonzero;fill:rgb(0%,0%,0%);fill-opacity:1;" d="M 401.199219 325.601562 C 401.199219 330.820312 396.96875 335.050781 391.75 335.050781 C 386.53125 335.050781 382.300781 330.820312 382.300781 325.601562 C 382.300781 320.382812 386.53125 316.148438 391.75 316.148438 C 396.96875 316.148438 401.199219 320.382812 401.199219 325.601562 Z M 401.199219 325.601562 "/>
<path style=" stroke:none;fill-rule:nonzero;fill:rgb(0%,0%,0%);fill-opacity:1;" d="M 391.75 169.675781 C 389.140625 169.675781 387.023438 171.792969 387.023438 174.398438 C 387.023438 177.007812 389.140625 179.125 391.75 179.125 C 394.359375 179.125 396.476562 177.007812 396.476562 174.398438 C 396.476562 171.792969 394.359375 169.675781 391.75 169.675781 Z M 391.75 169.675781 "/>
<path style=" stroke:none;fill-rule:nonzero;fill:rgb(0%,64.705882%,64.705882%);fill-opacity:1;" d="M 179.125 355.367188 C 160.226562 355.367188 144.632812 339.773438 144.632812 320.875 L 144.632812 179.125 C 144.632812 160.226562 160.226562 144.632812 179.125 144.632812 L 320.875 144.632812 C 339.773438 144.632812 355.367188 160.226562 355.367188 179.125 L 355.367188 320.875 C 355.367188 339.773438 339.773438 355.367188 320.875 355.367188 Z M 179.125 355.367188 "/>
<path style=" stroke:none;fill-rule:nonzero;fill:rgb(27.843137%,16.862745%,16.078431%);fill-opacity:1;" d="M 320.875 147.941406 C 337.886719 147.941406 352.058594 162.113281 352.058594 179.125 L 352.058594 320.875 C 352.058594 337.886719 337.886719 352.058594 320.875 352.058594 L 179.125 352.058594 C 162.113281 352.058594 147.941406 337.886719 147.941406 320.875 L 147.941406 179.125 C 147.941406 162.113281 162.113281 147.941406 179.125 147.941406 L 320.875 147.941406 M 320.875 141.324219 L 179.125 141.324219 C 158.335938 141.324219 141.324219 158.335938 141.324219 179.125 L 141.324219 320.875 C 141.324219 341.664062 158.335938 358.675781 179.125 358.675781 L 320.875 358.675781 C 341.664062 358.675781 358.675781 341.664062 358.675781 320.875 L 358.675781 179.125 C 358.675781 158.335938 341.664062 141.324219 320.875 141.324219 Z M 320.875 141.324219 "/>
<path style=" stroke:none;fill-rule:nonzero;fill:rgb(99.215686%,98.823529%,93.333333%);fill-opacity:1;" d="M 338.886719 241.554688 L 338.886719 317.628906 C 338.886719 329.441406 329.4375 338.890625 317.625 338.890625 L 185.324219 338.890625 C 173.511719 338.890625 164.0625 329.441406 164.0625 317.628906 L 164.0625 185.328125 C 164.0625 173.515625 173.511719 164.066406 185.324219 164.066406 L 317.625 164.066406 C 329.4375 164.066406 338.886719 173.515625 338.886719 185.328125 L 338.886719 241.554688 "/>
<path style=" stroke:none;fill-rule:nonzero;fill:rgb(27.843137%,16.862745%,16.078431%);fill-opacity:1;" d="M 337.414062 237.714844 C 335.996094 237.714844 335.050781 236.769531 335.050781 235.351562 L 335.050781 216.925781 C 335.050781 215.507812 335.996094 214.5625 337.414062 214.5625 C 338.828125 214.5625 339.773438 215.507812 339.773438 216.925781 L 339.773438 235.351562 C 339.773438 236.769531 338.828125 237.714844 337.414062 237.714844 Z M 337.414062 205.113281 C 335.996094 205.113281 335.050781 204.167969 335.050781 202.75 L 335.050781 193.300781 C 335.050781 191.882812 335.996094 190.9375 337.414062 190.9375 C 338.828125 190.9375 339.773438 191.882812 339.773438 193.300781 L 339.773438 202.75 C 339.773438 204.167969 338.828125 205.113281 337.414062 205.113281 Z M 337.414062 205.113281 "/>
<path style=" stroke:none;fill-rule:nonzero;fill:rgb(27.843137%,16.862745%,16.078431%);fill-opacity:1;" d="M 316.148438 339.773438 L 183.851562 339.773438 C 170.621094 339.773438 160.226562 329.378906 160.226562 316.148438 L 160.226562 183.851562 C 160.226562 170.621094 170.621094 160.226562 183.851562 160.226562 L 303.863281 160.226562 C 305.28125 160.226562 306.226562 161.171875 306.226562 162.585938 C 306.226562 164.003906 305.28125 164.949219 303.863281 164.949219 L 183.851562 164.949219 C 173.453125 164.949219 164.949219 173.453125 164.949219 183.851562 L 164.949219 316.148438 C 164.949219 326.546875 173.453125 335.050781 183.851562 335.050781 L 316.148438 335.050781 C 326.546875 335.050781 335.050781 326.546875 335.050781 316.148438 L 335.050781 248.109375 C 335.050781 246.691406 335.996094 245.746094 337.414062 245.746094 C 338.828125 245.746094 339.773438 246.691406 339.773438 248.109375 L 339.773438 316.148438 C 339.773438 329.378906 329.378906 339.773438 316.148438 339.773438 Z M 316.148438 339.773438 "/>
<path style=" stroke:none;fill-rule:nonzero;fill:rgb(0%,64.705882%,64.705882%);fill-opacity:1;" d="M 298.566406 218.976562 L 309.246094 210.078125 C 311.226562 208.429688 310.058594 205.210938 307.484375 205.210938 L 276.539062 205.210938 L 250.410156 267.921875 L 221.464844 205.207031 L 189.5625 205.207031 C 187.109375 205.207031 185.882812 208.175781 187.617188 209.910156 L 199.4375 221.730469 L 199.4375 287.820312 L 188.421875 304.335938 L 221.464844 304.335938 L 210.453125 287.8125 L 210.453125 235.496094 L 235.234375 304.335938 L 249.003906 304.335938 L 276.539062 235.496094 L 276.539062 293.324219 L 265.527344 304.335938 L 309.585938 304.335938 L 298.574219 293.324219 L 298.574219 218.976562 Z M 298.566406 218.976562 "/>
<path style=" stroke:none;fill-rule:nonzero;fill:rgb(27.843137%,16.862745%,16.078431%);fill-opacity:1;" d="M 309.582031 306.699219 L 265.523438 306.699219 C 264.566406 306.699219 263.703125 306.125 263.339844 305.238281 C 262.96875 304.355469 263.171875 303.339844 263.847656 302.664062 L 274.171875 292.339844 L 274.171875 247.753906 L 251.195312 305.207031 C 250.835938 306.109375 249.972656 306.699219 249.003906 306.699219 L 235.234375 306.699219 C 234.238281 306.699219 233.347656 306.078125 233.011719 305.136719 L 212.8125 249.03125 L 212.8125 287.101562 L 223.429688 303.027344 C 223.914062 303.75 223.960938 304.6875 223.550781 305.453125 C 223.136719 306.21875 222.339844 306.699219 221.464844 306.699219 L 188.421875 306.699219 C 187.550781 306.699219 186.75 306.21875 186.339844 305.453125 C 185.929688 304.6875 185.976562 303.75 186.457031 303.027344 L 197.074219 287.101562 L 197.074219 222.707031 L 185.949219 211.582031 C 184.476562 210.113281 184.042969 207.925781 184.835938 206.003906 C 185.632812 204.085938 187.488281 202.847656 189.5625 202.847656 L 221.464844 202.847656 C 222.386719 202.847656 223.222656 203.382812 223.609375 204.222656 L 250.296875 262.046875 L 274.355469 204.304688 C 274.726562 203.425781 275.585938 202.847656 276.535156 202.847656 L 307.480469 202.847656 C 309.65625 202.847656 311.546875 204.171875 312.289062 206.222656 C 313.03125 208.273438 312.429688 210.5 310.753906 211.898438 L 300.921875 220.085938 L 300.921875 292.351562 L 311.246094 302.675781 C 311.921875 303.351562 312.125 304.367188 311.753906 305.25 C 311.402344 306.125 310.542969 306.699219 309.582031 306.699219 Z M 271.230469 301.976562 L 303.878906 301.976562 L 296.894531 294.992188 C 296.453125 294.546875 296.207031 293.945312 296.207031 293.320312 L 296.207031 218.976562 C 296.207031 218.277344 296.519531 217.609375 297.054688 217.160156 L 307.738281 208.265625 L 307.488281 207.574219 L 278.113281 207.574219 L 252.589844 268.832031 C 252.230469 269.699219 251.394531 270.269531 250.453125 270.289062 C 249.507812 270.226562 248.65625 269.765625 248.265625 268.914062 L 219.953125 207.570312 L 189.5625 207.570312 L 189.285156 208.242188 L 201.105469 220.0625 C 201.550781 220.507812 201.796875 221.105469 201.796875 221.734375 L 201.796875 287.824219 C 201.796875 288.292969 201.660156 288.746094 201.398438 289.132812 L 192.835938 301.976562 L 217.050781 301.976562 L 208.484375 289.128906 C 208.226562 288.742188 208.089844 288.28125 208.089844 287.820312 L 208.089844 235.496094 C 208.089844 234.347656 208.917969 233.363281 210.046875 233.164062 C 211.144531 232.972656 212.285156 233.609375 212.671875 234.691406 L 236.898438 301.976562 L 247.40625 301.976562 L 274.347656 234.621094 C 274.769531 233.566406 275.863281 232.972656 276.988281 233.175781 C 278.097656 233.386719 278.902344 234.359375 278.902344 235.496094 L 278.902344 293.324219 C 278.902344 293.953125 278.652344 294.550781 278.214844 294.996094 Z M 271.230469 301.976562 "/>
</g>
</svg>
