<?xml version="1.0" encoding="UTF-8"?>
<svg xmlns="http://www.w3.org/2000/svg" xmlns:xlink="http://www.w3.org/1999/xlink" width="500pt" height="500pt" viewBox="0 0 500 500" version="1.1">
<g id="surface1078121">
<path style="fill-rule:nonzero;fill:rgb(93.333333%,24.313725%,32.941176%);fill-opacity:1;stroke-width:10;stroke-linecap:butt;stroke-linejoin:round;stroke:rgb(7.45098%,11.764706%,14.509804%);stroke-opacity:1;stroke-miterlimit:10;" d="M 33.900737 65.540074 C 33.900737 68.03554 31.877088 70.059189 29.379779 70.059189 C 26.884313 70.059189 24.860663 68.03554 24.860663 65.540074 C 24.860663 63.042765 26.884313 61.019115 29.379779 61.019115 C 31.877088 61.019115 33.900737 63.042765 33.900737 65.540074 Z M 33.900737 65.540074 " transform="matrix(2.119469,0,0,2.119469,10.5,10.5)"/>
<path style="fill-rule:nonzero;fill:rgb(94.509804%,73.72549%,9.803922%);fill-opacity:1;stroke-width:10;stroke-linecap:butt;stroke-linejoin:round;stroke:rgb(7.45098%,11.764706%,14.509804%);stroke-opacity:1;stroke-miterlimit:10;" d="M 176.280516 29.379779 C 176.280516 30.627512 175.268691 31.639337 174.019115 31.639337 C 172.771382 31.639337 171.759558 30.627512 171.759558 29.379779 C 171.759558 28.132046 172.771382 27.120221 174.019115 27.120221 C 175.268691 27.120221 176.280516 28.132046 176.280516 29.379779 Z M 176.280516 29.379779 " transform="matrix(2.119469,0,0,2.119469,10.5,10.5)"/>
<path style="fill-rule:nonzero;fill:rgb(98.823529%,87.843137%,63.529412%);fill-opacity:1;stroke-width:10;stroke-linecap:butt;stroke-linejoin:round;stroke:rgb(7.45098%,11.764706%,14.509804%);stroke-opacity:1;stroke-miterlimit:10;" d="M 196.620221 113 C 196.620221 159.182705 159.182705 196.620221 113 196.620221 C 66.817295 196.620221 29.379779 159.182705 29.379779 113 C 29.379779 66.817295 66.817295 29.379779 113 29.379779 C 159.182705 29.379779 196.620221 66.817295 196.620221 113 Z M 196.620221 113 " transform="matrix(2.119469,0,0,2.119469,10.5,10.5)"/>
<path style="fill-rule:nonzero;fill:rgb(94.509804%,73.72549%,9.803922%);fill-opacity:1;stroke-width:10;stroke-linecap:butt;stroke-linejoin:round;stroke:rgb(7.45098%,11.764706%,14.509804%);stroke-opacity:1;stroke-miterlimit:10;" d="M 196.620221 33.900737 C 196.620221 38.893512 192.572922 42.940811 187.580147 42.940811 C 182.587373 42.940811 178.540074 38.893512 178.540074 33.900737 C 178.540074 28.907963 182.587373 24.860663 187.580147 24.860663 C 192.572922 24.860663 196.620221 28.907963 196.620221 33.900737 Z M 196.620221 33.900737 " transform="matrix(2.119469,0,0,2.119469,10.5,10.5)"/>
<path style="fill-rule:nonzero;fill:rgb(93.333333%,24.313725%,32.941176%);fill-opacity:1;stroke-width:10;stroke-linecap:butt;stroke-linejoin:round;stroke:rgb(7.45098%,11.764706%,14.509804%);stroke-opacity:1;stroke-miterlimit:10;" d="M 201.139337 54.240442 C 201.139337 56.735908 199.115687 58.759558 196.620221 58.759558 C 194.122912 58.759558 192.099263 56.735908 192.099263 54.240442 C 192.099263 51.743133 194.122912 49.719484 196.620221 49.719484 C 199.115687 49.719484 201.139337 51.743133 201.139337 54.240442 Z M 201.139337 54.240442 " transform="matrix(2.119469,0,0,2.119469,10.5,10.5)"/>
<path style="fill-rule:nonzero;fill:rgb(98.431373%,80.392157%,34.901961%);fill-opacity:1;stroke-width:10;stroke-linecap:butt;stroke-linejoin:round;stroke:rgb(7.45098%,11.764706%,14.509804%);stroke-opacity:1;stroke-miterlimit:10;" d="M 187.580147 171.759558 C 187.580147 174.256867 185.556498 176.280516 183.059189 176.280516 C 180.563723 176.280516 178.540074 174.256867 178.540074 171.759558 C 178.540074 169.264092 180.563723 167.240442 183.059189 167.240442 C 185.556498 167.240442 187.580147 169.264092 187.580147 171.759558 Z M 42.940811 142.379779 C 42.940811 147.372553 38.893512 151.419853 33.900737 151.419853 C 28.907963 151.419853 24.860663 147.372553 24.860663 142.379779 C 24.860663 137.387004 28.907963 133.339705 33.900737 133.339705 C 38.893512 133.339705 42.940811 137.387004 42.940811 142.379779 Z M 42.940811 142.379779 " transform="matrix(2.119469,0,0,2.119469,10.5,10.5)"/>
<path style="fill-rule:nonzero;fill:rgb(93.333333%,24.313725%,32.941176%);fill-opacity:1;stroke-width:10;stroke-linecap:butt;stroke-linejoin:round;stroke:rgb(7.45098%,11.764706%,14.509804%);stroke-opacity:1;stroke-miterlimit:10;" d="M 61.019115 196.620221 C 61.019115 199.115687 58.995466 201.139337 56.5 201.139337 C 54.004534 201.139337 51.980885 199.115687 51.980885 196.620221 C 51.980885 194.122912 54.004534 192.099263 56.5 192.099263 C 58.995466 192.099263 61.019115 194.122912 61.019115 196.620221 Z M 61.019115 196.620221 " transform="matrix(2.119469,0,0,2.119469,10.5,10.5)"/>
<path style="fill-rule:nonzero;fill:rgb(100%,100%,100%);fill-opacity:1;stroke-width:10;stroke-linecap:butt;stroke-linejoin:round;stroke:rgb(7.45098%,11.764706%,14.509804%);stroke-opacity:1;stroke-miterlimit:10;" d="M 47.459926 120.910295 C 47.459926 124.030549 44.931286 126.559189 41.809189 126.559189 C 38.688935 126.559189 36.160295 124.030549 36.160295 120.910295 C 36.160295 117.790041 38.688935 115.259558 41.809189 115.259558 C 44.931286 115.259558 47.459926 117.790041 47.459926 120.910295 Z M 47.459926 120.910295 " transform="matrix(2.119469,0,0,2.119469,10.5,10.5)"/>
<path style="fill-rule:nonzero;fill:rgb(94.509804%,73.72549%,9.803922%);fill-opacity:1;stroke-width:10;stroke-linecap:butt;stroke-linejoin:round;stroke:rgb(7.45098%,11.764706%,14.509804%);stroke-opacity:1;stroke-miterlimit:10;" d="M 49.719484 151.419853 C 49.719484 152.667585 48.707659 153.67941 47.459926 153.67941 C 46.212193 153.67941 45.200369 152.667585 45.200369 151.419853 C 45.200369 150.17212 46.212193 149.160295 47.459926 149.160295 C 48.707659 149.160295 49.719484 150.17212 49.719484 151.419853 Z M 49.719484 151.419853 " transform="matrix(2.119469,0,0,2.119469,10.5,10.5)"/>
<path style="fill-rule:nonzero;fill:rgb(100%,100%,100%);fill-opacity:1;stroke-width:10;stroke-linecap:butt;stroke-linejoin:round;stroke:rgb(7.45098%,11.764706%,14.509804%);stroke-opacity:1;stroke-miterlimit:10;" d="M 183.059189 76.839705 C 183.059189 78.087438 182.047364 79.099263 180.799631 79.099263 C 179.551898 79.099263 178.540074 78.087438 178.540074 76.839705 C 178.540074 75.591972 179.551898 74.580147 180.799631 74.580147 C 182.047364 74.580147 183.059189 75.591972 183.059189 76.839705 Z M 183.059189 76.839705 " transform="matrix(2.119469,0,0,2.119469,10.5,10.5)"/>
<path style="fill-rule:nonzero;fill:rgb(37.647059%,74.509804%,57.254902%);fill-opacity:1;stroke-width:10;stroke-linecap:butt;stroke-linejoin:round;stroke:rgb(7.45098%,11.764706%,14.509804%);stroke-opacity:1;stroke-miterlimit:10;" d="M 167.80441 112.718016 C 167.80441 142.986136 143.26812 167.522426 113 167.522426 C 82.73188 167.522426 58.19559 142.986136 58.19559 112.718016 C 58.19559 82.449896 82.73188 57.911763 113 57.911763 C 143.26812 57.911763 167.80441 82.449896 167.80441 112.718016 Z M 167.80441 112.718016 " transform="matrix(2.119469,0,0,2.119469,10.5,10.5)"/>
<path style="fill-rule:nonzero;fill:rgb(27.843137%,16.862745%,16.078431%);fill-opacity:1;stroke-width:10;stroke-linecap:butt;stroke-linejoin:round;stroke:rgb(7.45098%,11.764706%,14.509804%);stroke-opacity:1;stroke-miterlimit:10;" d="M 113 169.103748 C 81.909887 169.103748 56.612425 143.809972 56.612425 112.718016 C 56.612425 81.624217 81.909887 56.330441 113 56.330441 C 144.090113 56.330441 169.387575 81.624217 169.387575 112.718016 C 169.387575 143.809972 144.090113 169.103748 113 169.103748 Z M 113 59.494928 C 83.653396 59.494928 59.776912 83.369569 59.776912 112.718016 C 59.776912 142.066463 83.653396 165.941105 113 165.941105 C 142.346604 165.941105 166.223088 142.066463 166.223088 112.718016 C 166.223088 83.369569 142.346604 59.494928 113 59.494928 Z M 113 59.494928 " transform="matrix(2.119469,0,0,2.119469,10.5,10.5)"/>
<path style="fill-rule:nonzero;fill:rgb(27.843137%,16.862745%,16.078431%);fill-opacity:1;stroke-width:10;stroke-linecap:butt;stroke-linejoin:round;stroke:rgb(7.45098%,11.764706%,14.509804%);stroke-opacity:1;stroke-miterlimit:10;" d="M 156.897345 100.852574 C 156.41447 100.852574 155.966613 100.539258 155.817328 100.052698 C 155.61828 99.40395 155.404489 98.762575 155.175953 98.124886 C 154.289454 95.651536 153.174419 93.244536 151.854808 90.962862 C 151.53965 90.424697 151.725796 89.731716 152.265804 89.418401 C 152.805813 89.097713 153.49695 89.291232 153.808422 89.833083 C 155.196226 92.230868 156.372081 94.763195 157.302812 97.360027 C 157.542406 98.032734 157.769099 98.705441 157.975519 99.387363 C 158.159822 99.984505 157.82439 100.616666 157.225404 100.800969 C 157.116666 100.835986 157.006084 100.852574 156.897345 100.852574 Z M 156.897345 100.852574 " transform="matrix(2.119469,0,0,2.119469,10.5,10.5)"/>
<path style="fill-rule:nonzero;fill:rgb(27.843137%,16.862745%,16.078431%);fill-opacity:1;stroke-width:10;stroke-linecap:butt;stroke-linejoin:round;stroke:rgb(7.45098%,11.764706%,14.509804%);stroke-opacity:1;stroke-miterlimit:10;" d="M 113 159.894115 C 86.985598 159.894115 65.822058 138.793238 65.822058 112.858087 C 65.822058 86.921092 86.985598 65.822058 113 65.822058 C 126.503898 65.822058 139.383008 71.607336 148.336459 81.694252 C 149.012852 82.455425 149.667129 83.2424 150.291917 84.047805 C 150.673424 84.539894 150.586802 85.247619 150.096555 85.630969 C 149.602623 86.019849 148.893055 85.927698 148.509704 85.431922 C 147.912562 84.667064 147.289617 83.920635 146.646399 83.194481 C 138.122374 73.590439 125.856994 68.079772 113 68.079772 C 88.233331 68.079772 68.081615 88.166982 68.081615 112.858087 C 68.081615 137.547348 88.233331 157.634558 113 157.634558 C 137.766669 157.634558 157.918385 137.547348 157.918385 112.858087 C 157.918385 110.609587 157.748826 108.346343 157.415237 106.138391 C 157.323085 105.524661 157.748826 104.947792 158.364398 104.85564 C 158.998402 104.767174 159.558683 105.187386 159.650835 105.804802 C 159.999168 108.121493 160.177942 110.495319 160.177942 112.858087 C 160.177942 138.793238 139.014402 159.894115 113 159.894115 Z M 113 159.894115 " transform="matrix(2.119469,0,0,2.119469,10.5,10.5)"/>
<path style="fill-rule:nonzero;fill:rgb(100%,100%,100%);fill-opacity:1;stroke-width:10;stroke-linecap:butt;stroke-linejoin:round;stroke:rgb(7.45098%,11.764706%,14.509804%);stroke-opacity:1;stroke-miterlimit:10;" d="M 145.501876 109.949781 C 144.633807 109.949781 143.750995 109.739676 142.936375 109.291819 C 118.213939 95.738159 84.808977 103.40886 84.473545 103.48811 C 81.591043 104.166346 78.715912 102.38782 78.037676 99.514532 C 77.35944 96.639402 79.137966 93.758742 82.013097 93.080506 C 83.542814 92.715586 119.786045 84.40351 148.076592 99.912627 C 150.667895 101.333605 151.617057 104.582871 150.197922 107.172332 C 149.222958 108.947172 147.390984 109.949781 145.501876 109.949781 Z M 139.570998 126.367514 C 138.826412 126.367514 138.074455 126.173995 137.387004 125.766685 C 114.826445 112.351253 87.12014 119.815534 86.841842 119.894784 C 84.562011 120.515886 82.206615 119.194432 81.574455 116.923816 C 80.940452 114.649514 82.263749 112.294119 84.536208 111.654586 C 85.807901 111.298881 115.989398 103.088172 141.76052 118.414829 C 143.793385 119.622015 144.458719 122.248336 143.24969 124.279358 C 142.451657 125.622929 141.030679 126.367514 139.570998 126.367514 Z M 134.158011 140.544119 C 133.599573 140.544119 133.035605 140.400362 132.521399 140.092576 C 112.319921 128.077848 87.70991 134.779113 87.461101 134.849149 C 85.761825 135.333866 83.986985 134.334943 83.50411 132.626452 C 83.024922 130.919804 84.020159 129.146806 85.72865 128.669461 C 86.841842 128.356146 113.258025 121.164633 135.803839 134.57638 C 137.326184 135.479466 137.827489 137.45151 136.92256 138.973855 C 136.318045 139.983837 135.254616 140.544119 134.158011 140.544119 Z M 134.158011 140.544119 " transform="matrix(2.119469,0,0,2.119469,10.5,10.5)"/>
<path style=" stroke:none;fill-rule:nonzero;fill:rgb(20%,20%,20%);fill-opacity:1;" d="M 72.769531 139.828125 C 67.480469 139.828125 63.191406 144.117188 63.191406 149.410156 C 63.191406 154.699219 67.480469 158.988281 72.769531 158.988281 C 78.0625 158.988281 82.351562 154.699219 82.351562 149.410156 C 82.351562 144.117188 78.0625 139.828125 72.769531 139.828125 Z M 72.769531 139.828125 "/>
<path style=" stroke:none;fill-rule:nonzero;fill:rgb(18.039216%,80%,44.313725%);fill-opacity:1;" d="M 379.328125 67.980469 C 376.683594 67.980469 374.539062 70.125 374.539062 72.769531 C 374.539062 75.414062 376.683594 77.558594 379.328125 77.558594 C 381.976562 77.558594 384.121094 75.414062 384.121094 72.769531 C 384.121094 70.125 381.976562 67.980469 379.328125 67.980469 Z M 379.328125 67.980469 "/>
<path style=" stroke:none;fill-rule:nonzero;fill:rgb(100%,100%,100%);fill-opacity:1;" d="M 250 72.769531 C 152.117188 72.769531 72.769531 152.117188 72.769531 250 C 72.769531 347.882812 152.117188 427.230469 250 427.230469 C 347.882812 427.230469 427.230469 347.882812 427.230469 250 C 427.230469 152.117188 347.882812 72.769531 250 72.769531 Z M 250 72.769531 "/>
<path style=" stroke:none;fill-rule:nonzero;fill:rgb(18.039216%,80%,44.313725%);fill-opacity:1;" d="M 408.070312 63.191406 C 397.488281 63.191406 388.910156 71.769531 388.910156 82.351562 C 388.910156 92.933594 397.488281 101.511719 408.070312 101.511719 C 418.652344 101.511719 427.230469 92.933594 427.230469 82.351562 C 427.230469 71.769531 418.652344 63.191406 408.070312 63.191406 Z M 408.070312 63.191406 "/>
<path style=" stroke:none;fill-rule:nonzero;fill:rgb(20%,20%,20%);fill-opacity:1;" d="M 427.230469 115.878906 C 421.9375 115.878906 417.648438 120.167969 417.648438 125.460938 C 417.648438 130.75 421.9375 135.039062 427.230469 135.039062 C 432.519531 135.039062 436.808594 130.75 436.808594 125.460938 C 436.808594 120.167969 432.519531 115.878906 427.230469 115.878906 Z M 427.230469 115.878906 "/>
<path style=" stroke:none;fill-rule:nonzero;fill:rgb(98.431373%,80.392157%,34.901961%);fill-opacity:1;" d="M 398.488281 364.960938 C 393.199219 364.960938 388.910156 369.25 388.910156 374.539062 C 388.910156 379.832031 393.199219 384.121094 398.488281 384.121094 C 403.78125 384.121094 408.070312 379.832031 408.070312 374.539062 C 408.070312 369.25 403.78125 364.960938 398.488281 364.960938 Z M 82.351562 293.109375 C 71.769531 293.109375 63.191406 301.6875 63.191406 312.269531 C 63.191406 322.851562 71.769531 331.429688 82.351562 331.429688 C 92.933594 331.429688 101.511719 322.851562 101.511719 312.269531 C 101.511719 301.6875 92.933594 293.109375 82.351562 293.109375 Z M 82.351562 293.109375 "/>
<path style=" stroke:none;fill-rule:nonzero;fill:rgb(20%,20%,20%);fill-opacity:1;" d="M 130.25 417.648438 C 124.960938 417.648438 120.671875 421.9375 120.671875 427.230469 C 120.671875 432.519531 124.960938 436.808594 130.25 436.808594 C 135.539062 436.808594 139.828125 432.519531 139.828125 427.230469 C 139.828125 421.9375 135.539062 417.648438 130.25 417.648438 Z M 130.25 417.648438 "/>
<path style=" stroke:none;fill-rule:nonzero;fill:rgb(100%,100%,100%);fill-opacity:1;" d="M 99.113281 254.789062 C 92.5 254.789062 87.140625 260.152344 87.140625 266.765625 C 87.140625 273.378906 92.5 278.738281 99.113281 278.738281 C 105.730469 278.738281 111.089844 273.378906 111.089844 266.765625 C 111.089844 260.152344 105.730469 254.789062 99.113281 254.789062 Z M 99.113281 254.789062 "/>
<path style=" stroke:none;fill-rule:nonzero;fill:rgb(18.039216%,80%,44.313725%);fill-opacity:1;" d="M 111.089844 326.640625 C 108.445312 326.640625 106.300781 328.785156 106.300781 331.429688 C 106.300781 334.074219 108.445312 336.21875 111.089844 336.21875 C 113.734375 336.21875 115.878906 334.074219 115.878906 331.429688 C 115.878906 328.785156 113.734375 326.640625 111.089844 326.640625 Z M 111.089844 326.640625 "/>
<path style=" stroke:none;fill-rule:nonzero;fill:rgb(100%,100%,100%);fill-opacity:1;" d="M 393.699219 168.570312 C 391.054688 168.570312 388.910156 170.714844 388.910156 173.359375 C 388.910156 176.003906 391.054688 178.148438 393.699219 178.148438 C 396.34375 178.148438 398.488281 176.003906 398.488281 173.359375 C 398.488281 170.714844 396.34375 168.570312 393.699219 168.570312 Z M 393.699219 168.570312 "/>
<path style=" stroke:none;fill-rule:nonzero;fill:rgb(37.647059%,74.509804%,57.254902%);fill-opacity:1;" d="M 250 133.242188 C 185.847656 133.242188 133.84375 185.25 133.84375 249.402344 C 133.84375 313.554688 185.847656 365.558594 250 365.558594 C 314.152344 365.558594 366.15625 313.554688 366.15625 249.402344 C 366.15625 185.25 314.152344 133.242188 250 133.242188 Z M 250 133.242188 "/>
<path style=" stroke:none;fill-rule:nonzero;fill:rgb(27.843137%,16.862745%,16.078431%);fill-opacity:1;" d="M 250 368.910156 C 184.105469 368.910156 130.488281 315.300781 130.488281 249.402344 C 130.488281 183.5 184.105469 129.890625 250 129.890625 C 315.894531 129.890625 369.511719 183.5 369.511719 249.402344 C 369.511719 315.300781 315.894531 368.910156 250 368.910156 Z M 250 136.597656 C 187.800781 136.597656 137.195312 187.199219 137.195312 249.402344 C 137.195312 311.605469 187.800781 362.207031 250 362.207031 C 312.199219 362.207031 362.804688 311.605469 362.804688 249.402344 C 362.804688 187.199219 312.199219 136.597656 250 136.597656 Z M 250 136.597656 "/>
<path style=" stroke:none;fill-rule:nonzero;fill:rgb(27.843137%,16.862745%,16.078431%);fill-opacity:1;" d="M 343.039062 224.253906 C 342.015625 224.253906 341.066406 223.589844 340.75 222.558594 C 340.328125 221.183594 339.875 219.824219 339.390625 218.472656 C 337.511719 213.230469 335.148438 208.128906 332.351562 203.292969 C 331.683594 202.152344 332.078125 200.683594 333.222656 200.019531 C 334.367188 199.339844 335.832031 199.75 336.492188 200.898438 C 339.433594 205.980469 341.925781 211.347656 343.898438 216.851562 C 344.40625 218.277344 344.886719 219.703125 345.324219 221.148438 C 345.714844 222.414062 345.003906 223.753906 343.734375 224.144531 C 343.503906 224.21875 343.269531 224.253906 343.039062 224.253906 Z M 343.039062 224.253906 "/>
<path style=" stroke:none;fill-rule:nonzero;fill:rgb(27.843137%,16.862745%,16.078431%);fill-opacity:1;" d="M 250 349.390625 C 194.863281 349.390625 150.007812 304.667969 150.007812 249.699219 C 150.007812 194.726562 194.863281 150.007812 250 150.007812 C 278.621094 150.007812 305.917969 162.269531 324.894531 183.648438 C 326.328125 185.261719 327.714844 186.929688 329.039062 188.636719 C 329.847656 189.679688 329.664062 191.179688 328.625 191.992188 C 327.578125 192.816406 326.074219 192.621094 325.261719 191.570312 C 323.996094 189.949219 322.675781 188.367188 321.3125 186.828125 C 303.246094 166.472656 277.25 154.792969 250 154.792969 C 197.507812 154.792969 154.796875 197.367188 154.796875 249.699219 C 154.796875 302.027344 197.507812 344.601562 250 344.601562 C 302.492188 344.601562 345.203125 302.027344 345.203125 249.699219 C 345.203125 244.933594 344.84375 240.136719 344.136719 235.457031 C 343.941406 234.15625 344.84375 232.933594 346.148438 232.738281 C 347.492188 232.550781 348.679688 233.441406 348.875 234.75 C 349.613281 239.660156 349.992188 244.691406 349.992188 249.699219 C 349.992188 304.667969 305.136719 349.390625 250 349.390625 Z M 250 349.390625 "/>
<path style=" stroke:none;fill-rule:nonzero;fill:rgb(100%,100%,100%);fill-opacity:1;" d="M 318.886719 243.535156 C 317.046875 243.535156 315.175781 243.089844 313.449219 242.140625 C 261.050781 213.414062 190.25 229.671875 189.539062 229.839844 C 183.429688 231.277344 177.335938 227.507812 175.898438 221.417969 C 174.460938 215.324219 178.230469 209.21875 184.324219 207.78125 C 187.566406 207.007812 264.382812 189.390625 324.34375 222.261719 C 329.835938 225.273438 331.847656 232.160156 328.839844 237.648438 C 326.773438 241.410156 322.890625 243.535156 318.886719 243.535156 Z M 306.316406 278.332031 C 304.738281 278.332031 303.144531 277.921875 301.6875 277.058594 C 253.871094 248.625 195.148438 264.445312 194.558594 264.613281 C 189.726562 265.929688 184.734375 263.128906 183.394531 258.316406 C 182.050781 253.496094 184.855469 248.503906 189.671875 247.148438 C 192.367188 246.394531 256.335938 228.992188 310.957031 261.476562 C 315.265625 264.035156 316.675781 269.601562 314.113281 273.90625 C 312.421875 276.753906 309.410156 278.332031 306.316406 278.332031 Z M 294.84375 308.378906 C 293.660156 308.378906 292.464844 308.074219 291.375 307.421875 C 248.558594 281.957031 196.398438 296.160156 195.871094 296.308594 C 192.269531 297.335938 188.507812 295.21875 187.484375 291.597656 C 186.46875 287.980469 188.578125 284.222656 192.199219 283.210938 C 194.558594 282.546875 250.546875 267.304688 298.332031 295.730469 C 301.558594 297.644531 302.621094 301.824219 300.703125 305.050781 C 299.421875 307.191406 297.167969 308.378906 294.84375 308.378906 Z M 294.84375 308.378906 "/>
</g>
</svg>
